<?xml version="1.0" encoding="UTF-8"?>
<!DOCTYPE svg PUBLIC "-//W3C//DTD SVG 1.1//EN" "http://www.w3.org/Graphics/SVG/1.1/DTD/svg11.dtd">
<!-- Creator: CorelDRAW 2017 -->
<svg xmlns="http://www.w3.org/2000/svg" xml:space="preserve" width="8.26772in" height="2.55906in" version="1.1" style="shape-rendering:geometricPrecision; text-rendering:geometricPrecision; image-rendering:optimizeQuality; fill-rule:evenodd; clip-rule:evenodd"
viewBox="0 0 8001.02 2476.5"
 xmlns:xlink="http://www.w3.org/1999/xlink">
 <defs>
  <style type="text/css">
   <![CDATA[
    .fil1 {fill:#FEFEFE}
    .fil0 {fill:#35388A}
    .fil2 {fill:#FEFEFE;fill-rule:nonzero}
   ]]>
  </style>
 </defs>
 <g id="Layer_x0020_1">
  <metadata id="CorelCorpID_0Corel-Layer"/>
  <g id="_3064081730160">
   <rect class="fil0" x="0" y="-0" width="8001.02" height="2476.5"/>
   <g>
    <path id="ayk-yildiz-simge.cdr" class="fil1" d="M2792.57 1134.62c-0.14,-1.2 0.54,-2.29 -0.16,-3.55 -3.75,-6.58 -14.73,-12.38 -23.53,-12.38 -2.87,0 -5.35,0.74 -7.46,1.91 -8.69,-3.31 -17.46,-6.34 -26.17,-9.26 -0.33,-1.64 -0.66,-3.25 -1.66,-4.89 -5.76,-9.37 -22.19,-16.94 -36.56,-16.94 -4.73,0 -8.72,0.96 -12.13,2.49 -8.33,-3.28 -19.42,-7.21 -33.14,-11.8 -7.02,-9.35 -24.48,-16.91 -37.79,-16.91 -3.63,0 -6.45,0.87 -9.12,1.89 -9.65,-3.01 -19.7,-6.1 -30.25,-9.32 -7.68,-10.87 -26.12,-18.31 -39.29,-18.31 -5.03,0 -8.64,1.26 -11.53,3.17 -10.33,-3.09 -20.88,-6.17 -31.47,-9.29 -8.14,-6.72 -20.41,-12.6 -31.47,-12.6 -2.54,0 -4.48,0.88 -6.61,1.45 -11.48,-3.31 -22.92,-6.64 -34.34,-9.92 -7.92,-8.85 -28.17,-17.19 -42,-17.19 -4.45,0 -7.27,1.09 -9.67,2.32 -7.43,-2.13 -14.73,-4.24 -22.02,-6.31 -6.26,-8.22 -27.27,-14.32 -42.52,-14.32 -1.99,0 -3.22,0.5 -4.89,0.71 -14.64,-4.21 -28.19,-8.14 -40.68,-11.75 -6.88,-9.1 -21.17,-15.77 -32.57,-15.77 -4.48,0 -8.12,1.15 -11.23,2.84 -5.19,-1.56 -10.28,-3.11 -14.07,-4.29 -2.35,-0.74 -5.11,-1.53 -7.76,-2.29 -0.41,-1.01 -0.03,-2.16 -0.79,-3.12 -5.66,-7.05 -19.92,-10.74 -31.01,-10.74 -4.32,0 -7.84,0.77 -10.82,1.75 -9.16,-2.62 -18.63,-5.49 -28.34,-8.61 -0.3,-0.52 -0.25,-0.9 -0.66,-1.42 -6.09,-8.03 -21.88,-15.11 -33.75,-15.11 -2.73,0 -4.89,0.6 -6.96,1.28 -8.88,-3.79 -17.6,-8 -26.01,-12.54 -0.19,-1.83 -0.74,-3.75 -1.86,-5.68 -5.41,-9.32 -19.4,-17.19 -30.55,-17.19 -0.6,0 -0.98,0.44 -1.64,0.52 -6.42,-5.36 -12.16,-11.21 -17.35,-17.35 0.82,-2.65 0.82,-5.79 -0.11,-9.4 -2.46,-9.4 -11.04,-20.6 -19.98,-26.15 -2.76,-9.04 -4.21,-18.8 -4.15,-29.29 5.55,-3.99 7.84,-11.67 6.37,-18.55 -0.54,-2.68 -2.24,-4.32 -3.55,-6.39 2.1,-10 5.25,-20.55 9.97,-31.78 3.25,-2.32 5.9,-5.68 7.24,-10.41 1.07,-3.83 0.9,-6.53 0.77,-9.29 5.14,-11.69 10.13,-23.58 14.92,-35.88 0.38,-0.16 0.74,-0.08 1.07,-0.27 9.54,-5.11 13.61,-16.58 10.44,-29.24 -0.08,-0.33 -0.3,-0.66 -0.38,-1.01 2.84,-7.84 5.63,-15.68 8.28,-23.66 3.58,-0.3 6.75,-1.89 9.1,-5.03 5.76,-7.65 6.18,-18.69 1.86,-30.19 3.55,-11.8 6.88,-23.55 10.13,-35.33 0.71,-0.46 1.75,-0.33 2.38,-0.87 5.38,-4.81 6.86,-11.8 3.99,-19.26 -0.16,-0.44 -0.49,-0.77 -0.66,-1.2 3.01,-11.75 5.9,-23.33 8.61,-34.89 5.06,-1.26 8.99,-4.02 10.52,-9.32 2.02,-7.1 0.33,-14.62 -3.39,-21.56 2.87,-13.28 5.38,-26.15 7.76,-38.72 4.07,-1.61 7.35,-4.02 8.53,-7.84 1.64,-5.33 0.24,-11.34 -3.85,-16.8 -0.08,-0.11 -0.22,-0.14 -0.3,-0.25 2.27,-13.14 4.21,-25.63 5.84,-37.46 0.88,-0.76 2.05,-1.23 2.82,-2.18 4.81,-6.01 5.68,-13.47 2.29,-20.47 -0.43,-0.85 -1.39,-1.28 -1.86,-2.08 0.27,-1.97 0.54,-3.99 0.74,-5.74 1.12,-10.76 2,-21.09 2.68,-31.2 1.83,-2 3.96,-3.77 4.97,-6.59 2.82,-7.84 1.86,-15.63 -2.57,-21.94 -0.46,-0.63 -1.2,-0.93 -1.69,-1.5 0,-13.82 -0.69,-26.88 -2.38,-38.9 3.01,-2.57 4.97,-5.77 4.97,-9.59 0,-11.04 -6.83,-21.91 -15.41,-27.6 -2.79,-6.42 -5.9,-12.54 -9.75,-18.01 1.04,-2.05 1.78,-4.21 1.07,-6.64 -3.58,-12.02 -11.86,-19.81 -20.96,-19.81 -1.91,0 -4.29,0.41 -6.83,1.58 -4.89,-2.84 -10.22,-5.44 -16.04,-7.62 -1.91,-8.25 -10.87,-13.39 -19.64,-13.39 -4.87,0 -8.99,1.69 -12.52,4.26 -52.46,-10.14 -88.22,8.99 -136.26,67.29 -6.75,8.23 -31.75,40.44 -66.42,84.04 -9.16,1.04 -18.04,7.24 -22.27,16.42 -2.13,4.65 -2.21,9.07 -1.34,13.14 -5.52,6.88 -11.31,14.02 -17.16,21.23 -0.74,-0.11 -1.5,-0.55 -2.27,-0.55 -10.52,0 -19.81,11.4 -22.73,22.35 -0.9,3.47 -0.87,6.53 -0.38,9.24 -6.09,7.4 -12.19,14.81 -18.44,22.38 -8.42,-0.11 -17.08,5.33 -22.84,15.14 -3.44,5.84 -4.7,11.94 -4.75,17.65 -6.88,8.14 -13.83,16.23 -20.79,24.35 -0.41,-0.03 -0.74,-0.24 -1.18,-0.24 -12.13,0 -23.85,11.88 -28.19,23.33 -1.67,4.53 -2.08,8.69 -1.45,12.37 -5.44,6.12 -10.82,12.19 -16.26,18.25 -10.09,0.87 -19.54,10.11 -24.56,19.51 -2.21,4.13 -3.39,8.04 -3.69,11.48 -4.37,4.75 -8.74,9.54 -13.09,14.15 -1.34,-0.49 -2.51,-1.31 -4.07,-1.31 -12.29,0 -27.46,14.92 -30.82,26.67 -1.15,3.85 -0.41,6.88 1.06,9.48 -3.99,3.99 -7.92,7.79 -11.83,11.59 -1.61,-0.49 -3.06,-1.45 -4.81,-1.45 -8.88,0 -18.69,6.88 -23.33,16.39 -2.21,4.53 -2.54,8.96 -1.89,13.14 -6.67,5.96 -13.17,11.61 -19.45,16.72 -1.5,-0.27 -3.01,-1.2 -4.51,-1.2 -8.53,0 -16.56,4.78 -21.5,12.76 -2,3.25 -2.98,6.69 -3.55,10.09 -6.42,4.1 -12.43,7.46 -18.04,10 -3.47,-5.63 -9.94,-8.96 -18.88,-8.96 -12.6,0 -25.79,6.69 -29.21,16.01 -6.58,-0.43 -13.53,-1.31 -20.74,-2.51 -0.35,-0.74 -0.38,-1.5 -0.88,-2.19 -7.13,-10.38 -28.88,-16.83 -44.97,-16.83 -6.69,0 -11.72,1.15 -15.11,3.14 -7.46,-2.54 -15.11,-5.35 -22.9,-8.33 -0.05,-0.66 0.22,-1.23 0,-1.91 -3.14,-10.38 -24.59,-24.32 -42.21,-24.32 -4.89,0 -8.82,1.48 -12.24,3.58 -7.3,-3.31 -14.76,-6.8 -22.22,-10.3 0.22,-1.94 0.46,-3.85 -0.19,-6.15 -2.95,-10.25 -14.65,-21.31 -28.39,-21.31 -5.65,0 -11.09,2.3 -16.36,5.76 -5.55,-2.76 -11.09,-5.49 -16.72,-8.31 0.14,-1.99 -0.3,-4.59 -1.83,-7.89 -5.22,-11.12 -21.96,-26.64 -37.46,-26.64 -5.74,0 -10.57,2.51 -14.37,6.77 -5.38,-2.84 -10.79,-5.71 -16.17,-8.58 1.45,-4.4 1.78,-8.93 -0.3,-13.42 -5.14,-11.06 -20.52,-19.75 -35,-19.75 -6.53,0 -11.97,2.19 -16.5,5.55 -6.72,-3.6 -13.42,-7.21 -20.11,-10.82 0.6,-3.36 0.35,-6.86 -1.34,-10.44 -5.27,-11.17 -21.12,-20.57 -34.65,-20.57 -5.33,0 -9.62,1.86 -13.25,4.59 -5.71,-3.06 -11.39,-6.04 -17.08,-9.04 0.06,-1.83 -0.27,-3.8 -1.23,-5.88 -4.98,-10.85 -24.02,-23.99 -40.11,-23.99 -4.07,0 -7.49,1.12 -10.57,2.76 -4.48,-2.29 -8.93,-4.62 -13.34,-6.88 0.63,-3.42 -0.77,-7.43 -4.45,-12.19 -9.86,-12.62 -33.11,-26.69 -50.71,-26.69 -6.17,0 -11.06,2.02 -15.11,5.22 -4.24,-1.97 -8.61,-4.02 -12.65,-5.76 -1.12,-0.49 -2.1,-0.85 -3.14,-1.26 -0.58,-4.26 -1.97,-8.5 -5.17,-12.41 -7.79,-9.56 -22.84,-16.5 -35.76,-16.5 -7.84,0 -13.44,3.03 -17.24,7.65 -37.92,-11.39 -66.97,-14.12 -89.1,-10.71 -3.5,-2.67 -7.51,-4.56 -12.43,-4.56 -14.59,0 -29.48,12.21 -29.48,24.21 0,0.11 0.11,0.19 0.14,0.3 -23.44,22.98 -27.81,60.44 -26.39,94.56 0.41,9.43 5.22,21.92 12.24,35.85 0.6,6.78 2.65,13.99 7.54,21.12 3.58,5.22 7.95,9.32 12.51,12.76 10.47,15.66 22.92,32.51 37.35,50.47 1.42,7.92 4.84,15.87 8.53,22.35 4.62,8.12 12.62,12.46 21.8,13.99 8.33,9.59 16.94,19.26 25.85,29.07 0,0.14 -0.11,0.22 -0.11,0.38 -0.14,12.73 9.21,24.78 25.03,32.24 2.71,1.25 4.83,1.2 7.27,1.88 9.51,9.95 19.1,19.87 28.88,29.73 -1.04,3.31 -1.88,6.75 -1.06,10.82 2.65,13.19 15.54,26.86 32.51,26.86 0.03,0 0.03,0 0.03,0 1.97,0 3.99,-0.19 6.01,-0.58 5.76,5.55 11.5,10.98 17.24,16.42 -0.27,3.14 0.13,6.48 1.66,9.89 5.36,12.16 21.07,22.76 33.66,22.92 6.31,5.76 12.57,11.4 18.8,16.91 0.19,2.71 0.6,5.44 1.99,8.36 4.4,9.15 14.65,18.41 25.71,18.41 0.85,0 1.64,-0.41 2.46,-0.52 5.03,4.32 10.05,8.55 14.92,12.62 -2.16,5.11 -2.51,10.49 0.35,15.98 5.88,11.15 21.97,20.6 35.22,20.6 2.13,0 3.85,-0.57 5.63,-1.04 4.1,4.04 7.92,8.14 11.26,12.24 -3.14,5.38 -4.18,11.8 -1.37,18.66 4.04,9.75 13.14,16.8 21.91,17.27 1.23,3.83 2.16,7.7 2.87,11.5 -1.94,1.26 -3.83,2.59 -4.75,4.45 -5.44,10.85 -3.94,16.75 -2.19,23.58l0.27 1.04c1.36,5.47 3.58,8.77 6.01,11.23 -1.23,5.46 -2.84,10.9 -4.83,16.23 -5.03,0.58 -9.89,3.42 -13.5,8.64 -4.7,6.77 -6.07,15.03 -3.63,21.58 0.19,0.54 0.66,0.79 0.93,1.26 -1.97,3.01 -3.99,5.98 -6.15,8.93 -0.49,-0.38 -0.6,-1.01 -1.18,-1.28 -4.02,-2.02 -8.06,-3.01 -11.99,-3.01 -12.29,0 -20.71,9.78 -24.51,18.91 -4.18,10.11 -3.36,20.33 1.72,25.98 -2.59,2.49 -5.16,4.89 -7.76,7.24 -5.74,-5.6 -13.03,-8.63 -21.15,-8.63 -14.1,0 -29.18,9.18 -35.96,21.8 -4.97,9.29 -4.7,18.94 0.79,27.16 0.57,0.82 1.39,1.17 1.99,1.91 -4.56,3.03 -8.91,5.96 -12.05,7.92 -1.39,0.88 -3.63,2.32 -5.8,3.66 -0.14,-0.24 -0.16,-0.66 -0.33,-0.85 -4.89,-6.15 -11.12,-9.4 -18.03,-9.4 -13.03,0 -25.79,11.69 -29.54,22.6 -2.27,6.5 -0.93,12.13 3.22,15.82 -6.26,3.94 -13.06,8.2 -20.11,12.65 -4.81,-2.84 -9.84,-4.72 -15.33,-4.72 -15.52,0 -29.73,11.91 -34.48,23.36 -1.97,4.81 -1.64,9.04 -0.27,12.76 -4.81,3.01 -9.59,6.04 -14.54,9.15 -4.56,-4.64 -9.84,-7.51 -15.82,-7.51 -13.03,0 -25.82,11.7 -29.54,22.62 -1.72,4.95 -0.85,9.1 1.15,12.57 -5.52,3.41 -11.07,6.91 -16.64,10.44 -3.74,-2.73 -7.92,-4.59 -12.84,-4.59 -13.25,0 -26.86,10.22 -31.89,19.64 -2.62,4.97 -2.71,9.56 -0.77,13.36 -5.76,3.58 -11.48,7.13 -17.21,10.74 -3.69,-2.92 -8.08,-4.89 -13.42,-4.89 -17.76,0 -38.09,15.6 -45.22,29.67 -2.43,4.81 -2.82,9.04 -2.19,13.03 -8.53,5.27 -16.83,10.47 -25.08,15.54 -3.88,-2.16 -8.23,-3.69 -13.45,-3.69 -13.77,0 -29.29,7.81 -38.61,19.4 -5.3,6.61 -7.21,13.74 -7.4,20.99 -8.06,4.97 -15.85,9.7 -23.31,14.29 -3.25,-1.99 -6.94,-3.5 -11.75,-3.5 -14.86,0 -35.33,10.55 -45.66,23.47 -5.06,6.34 -7.05,12.57 -5.79,17.95 0.13,0.49 0.43,0.85 0.57,1.37 -98.12,71.53 -94.78,219.1 79.05,241.09 57.46,7.32 127.13,-5.33 201.75,-27.62 1.5,0.25 2.92,0.79 4.48,0.79 2.95,0 5.93,-0.49 8.82,-1.31 5.52,-1.64 9.81,-4.54 13.58,-7.92 10.3,-3.25 20.63,-6.58 31.09,-10.19 3.25,3.17 7.27,5 11.78,5 1.58,0 3.22,-0.22 4.89,-0.62 15.38,-3.86 23.36,-11.91 27.24,-20.41 7.98,-2.95 15.93,-5.93 23.93,-8.96 3.36,1.83 6.99,3.12 11.17,3.12 13.88,0 27.65,-10.38 34.97,-21.48 6.39,-2.59 12.79,-5.14 19.21,-7.76 3.77,2.46 7.68,3.25 10.98,3.25 12.57,0 25.52,-10.44 30.85,-20.57 6.72,-2.82 13.39,-5.55 20.08,-8.36 3.63,3.3 8.63,5.24 14.84,5.24 0,0 0,0 0.03,0 10.19,0 20.76,-4.91 27.62,-12.81 2.62,-2.98 5.25,-7.46 6.77,-13.06 6.67,-2.81 13.22,-5.46 19.81,-8.2 4.34,3.17 10.41,4.97 17.84,4.97 15.03,0 30.66,-6.97 37.98,-16.97 2.84,-3.86 3.99,-8.06 4.29,-12.41 6.17,-2.4 12.32,-4.83 18.39,-7.21 5,6.45 14.51,10.82 24.89,10.82 15.68,0 28.03,-8.71 33.06,-23.33 1.28,-3.71 1.2,-6.42 1.18,-9.18 3.88,-1.31 7.7,-2.6 11.5,-3.86 4.1,4.37 9.86,7 17.24,7 13.55,0 28.85,-8.96 35.85,-22.59 11.23,-2.93 22.19,-5.47 32.57,-7.35 7.24,4.51 16.42,7.29 26.37,7.29 0,0 0,0 0.03,0 8.44,0 16.31,-1.91 22.13,-5.35 2.73,-1.64 4.56,-3.75 6.26,-5.85 7.32,0.19 14.78,0.33 21.2,1.67 1.01,0.22 1.89,0.62 2.79,1.01 0.87,2.46 1.01,5.06 2.51,7.3 9.84,14.94 29.87,21.8 44.32,21.8 1.53,0 2.68,-0.52 4.1,-0.66 7.05,6.75 13.55,14.65 19.7,23.36 -2.59,6.83 -2.05,12.6 -0.74,16.17 3.01,8.36 11.25,14.34 20.3,15.77 4.48,8.69 8.77,17.98 12.95,27.73 -3.14,7.32 -3.77,15.54 -0.85,24.04 3.36,9.75 10.33,17.32 18.36,20.44 3.01,8.39 6.04,17.1 9.02,25.95 -5.08,8.44 -5.38,19.78 -0.08,31.7 4.13,9.37 10.57,16.45 17.27,20.11 1.97,6.07 3.94,12.05 5.93,18.28 -4.51,5.11 -6.72,11.94 -5.55,20.27 1.78,12.68 10.85,25.98 21.77,29.07 2.65,7.9 5.47,15.85 8.28,23.88 -6.23,8 -7.89,18.75 -3.88,30.14 4.43,12.65 14.15,22.02 23.69,24.12 2.79,7.3 5.57,14.59 8.5,22 -6.09,9.78 -7.24,21.07 -2.65,32.13 5.06,12.18 15.98,21.61 27.35,24.78 4.42,9.54 9.12,19.02 13.91,28.55 -4.81,11.94 -4.64,23.44 1.07,32.71 5.05,8.14 14.07,12.81 23.9,14.34 5.33,9.35 10.98,18.66 16.81,27.9 -3.5,9.92 -2.71,20.44 2.92,30.27 7.19,12.62 20.6,21.61 34.45,24.43 9.4,12.6 19.26,25.05 29.62,37.35 -0.41,3.77 -1.04,7.4 -0.58,11.78 2.6,25.03 25.79,38.55 46.31,38.63 12.92,12.52 25.55,23.61 37.95,33.22 0.96,5.68 2.81,11.23 6.17,16.5 9.81,15.44 28.01,25.44 46.45,25.44 4.83,0 9.56,-0.93 14.15,-2.27 98.85,41.31 170.19,-11.34 189.57,-86.67 3.77,-2.46 6.42,-6.07 6.15,-11.61 -0.13,-2.82 -1.09,-5.57 -2.29,-8.14 1.56,-11.72 1.94,-23.77 1.04,-35.99 3.47,-3.25 5.71,-7.65 5.28,-13.99 -0.66,-10.14 -7.19,-23.34 -14.46,-29.76 -2.13,-6.34 -4.34,-12.73 -7.27,-18.99 -0.96,-2 -1.99,-4.59 -3,-6.91 5.11,-6.15 6.75,-13.8 3.47,-22.32 -3.99,-10.22 -13.69,-19.51 -21.53,-21.61 -3.99,-10.41 -8,-21.28 -12.1,-33.09 6.89,-7.24 7.76,-19.92 2.08,-34.45 -4.53,-11.59 -13.06,-23.04 -20.9,-23.99 -1.91,-6.28 -3.79,-12.95 -5.71,-19.56 6.83,-6.29 8.14,-17.63 3.28,-32.6 -4.15,-12.84 -12.76,-26.34 -20.22,-30.41 -1.78,-7 -3.6,-13.91 -5.33,-21.15 6.15,-10.22 4.83,-27.62 -0.14,-41.75 -3.01,-8.63 -7.92,-17.62 -13.85,-21.45 -2.48,-11.86 -4.86,-23.91 -7.16,-36.12 5.76,-10.44 5.68,-26.01 1.7,-38.33 -2.73,-8.36 -6.97,-14.21 -11.83,-17.54 -1.37,-8.63 -2.63,-17.54 -3.94,-26.34 5.16,-10.44 3.77,-26.94 -0.98,-40.47 -1.7,-4.81 -4.04,-9.56 -6.72,-13.63 -1.39,-11.21 -1.83,-21.67 -1.83,-31.81 6.26,-11.37 6.56,-23.09 2.76,-31.66 1.31,-9.16 3.09,-17.84 5.46,-25.98 7.43,-3.77 13.74,-10.74 17.1,-19.32 2.95,-7.57 2.4,-14.78 -0.08,-20.99 4.37,-7.21 9.26,-13.93 14.56,-20.14 9.64,-1.2 17.19,-5.71 19.97,-14.13 0.71,-2.08 0.35,-4.4 0.63,-6.61 9.26,-7.9 19.18,-14.65 29.4,-20.71 0.79,0.54 1.12,1.23 1.91,1.75 2.57,1.69 5.8,2.59 9.65,2.59 15.11,0 36.01,-13.44 44.67,-25.44 1.26,-1.7 1.72,-3.33 2.51,-4.98 6.31,-1.99 12.62,-3.79 18.8,-5.35 3.66,7.27 9.75,11.5 17.62,11.5 7.05,0 14.34,-3.36 19.62,-9.02 2.9,-3.2 4.59,-6.91 5.57,-10.76 4.29,-0.58 8.42,-1.09 12.27,-1.5 3.94,7.79 16.45,11.64 29.07,11.64 12.71,0 25.63,-3.85 30.19,-11.69 5.52,0.55 11.77,1.12 18.55,1.78 6.88,12.65 24.43,19.67 38.69,19.67 12.33,0 20.91,-5.3 25.49,-13.61 4.56,0.38 9.18,0.74 13.91,1.18 0,0.03 0,0.08 0,0.14 2.16,9.64 17.05,13.93 30.88,13.93 10.49,0 22.7,-2.76 26.86,-9.65 5.55,0.38 11.15,0.74 16.86,1.12 0.22,0.66 -0.05,1.34 0.25,2.02 3.09,7.65 11.69,12.02 23.58,12.02 11.23,0 23.88,-4.35 28.47,-11.31 6.01,0.3 12.05,0.54 18.14,0.74 4.23,10.11 20.49,15.74 34.59,15.74 14.4,0 23.91,-5.52 26.5,-14.23 4.51,0.05 9.01,0.11 13.53,0.11 4.86,7.62 16.2,10.77 26.12,10.77 11.34,0 23.31,-3.77 28.26,-11.4 6.42,-0.16 12.81,-0.38 19.18,-0.6 0.14,0.22 0.3,0.57 0.38,0.68 4.81,8.03 16.91,12.62 33.14,12.62 10.08,0 20.33,-1.89 28.03,-5.16 7.79,-3.33 11.86,-8.06 12.98,-13.28 11.75,-1.15 23.25,-2.46 34.54,-4.02 1.91,1.58 3.8,3.55 5.71,4.51 4.45,2.19 12.51,2.68 18.44,2.68 20.33,0 52.38,-5.46 59.78,-15.79 1.7,-2.29 2.08,-4.83 1.31,-7.29 -0.19,-0.58 -0.57,-1.01 -0.74,-1.56 8,-2.35 15.63,-4.95 23.12,-7.68 6.53,3.6 12.95,5.68 16.66,6.23 0.41,0.05 0.79,0.08 1.23,0.08 12.13,0 45.14,-21.86 52.02,-39.75 0.96,-2.43 0.79,-4.59 0.79,-6.75 9.86,-9.07 18.28,-18.91 24.01,-30.11 34.79,-67.84 13.01,-100.47 -23.74,-121.01zm-37.65 66.01c1.04,-4.4 3.77,-11.86 10.27,-11.86 1.78,0 3.85,0.54 6.01,1.69 9.32,4.62 13.39,10.47 11.91,16.94 -2.08,8.72 -13.44,15.77 -21.45,15.77 -1.75,0 -3.28,-0.35 -4.54,-0.96 -2.54,-1.26 -4.59,-11.64 -2.21,-21.58zm-73.45 -37.81c3.77,-7.13 11.12,-11.17 20.22,-11.17 9.94,0 19.83,4.95 25.17,12.62 3.69,5.19 7.08,14.15 2.35,27.1 -3.71,10.13 -10.74,15.74 -19.78,15.74 -9.94,0 -20.96,-6.86 -26.88,-16.56 -5.36,-8.96 -5.74,-18.8 -1.07,-27.73zm-80.71 57.62c5.08,0 12.02,2.02 16.34,11.72 2.71,6.01 2.54,13.09 -0.46,19.83 -3.06,6.97 -8.8,12.87 -14.26,14.65 -2.65,0.87 -5.16,1.34 -7.6,1.34 -9.7,0 -15.98,-7.27 -18.11,-21.01 -0.96,-5.93 1.01,-12.08 5.44,-17.27 4.89,-5.71 12.05,-9.26 18.66,-9.26zm21.83 -21.23c-0.46,0.05 -0.68,-0.3 -1.17,-0.3l0 -1.78c-14.07,-0.05 -19.05,-14.7 -19.05,-28.42 0,-8.96 2.08,-18.06 5.71,-24.92 2.21,-4.13 7.02,-11.04 14.42,-11.04l0 -1.2c1.78,-0.05 3.47,-0.68 5.41,0.03 30.27,10.66 30.33,65.85 -5.33,67.62zm59.42 48.33c0.79,5.63 -2.84,9.84 -10.13,11.94 -2.13,0.58 -4.13,0.93 -6.01,0.93 -10.13,0 -12.21,-8.85 -12.65,-11.56 -0.9,-6.26 1.61,-13.77 7.4,-15.52 1.26,-0.38 2.6,-0.58 3.94,-0.58 8.66,-0.03 16.5,7.95 17.46,14.78zm-151.64 -103.83c0.3,-4.92 2.54,-20.96 20.33,-20.96 1.28,0 2.59,0.08 3.99,0.24 12.95,1.61 18.94,15.3 18.14,27.92 -0.71,11.5 -7.27,23.17 -20.33,23.17 -0.85,0 -1.72,-0.06 -2.67,-0.19 -13.01,-1.42 -20.19,-16.8 -19.45,-30.19zm-4.84 78.91c2.46,-3.96 5.85,-6.01 10.09,-6.01 1.42,0 2.92,0.27 4.51,0.66 11.42,3.17 17.24,10.74 15.85,20.77 -1.5,11.17 -11.34,21.34 -20.6,21.34 -8.69,0 -13.36,-11.5 -13.36,-22.29 0,-5.66 1.26,-10.79 3.52,-14.46zm263.12 -89.48c1.26,2.19 0.58,3.25 0.41,3.66 -1.18,1.89 -6.2,3.88 -13.5,3.88 -8.09,0 -14.97,-2.46 -16.8,-5.98 -1.09,-2.11 -0.46,-4.84 1.83,-8.04 1.7,-2.48 4.51,-3.69 8.28,-3.69 7.92,0 17.13,5.46 19.78,10.17zm-58.74 -24.43c1.89,3.01 2.13,5.93 0.77,8.63 -2.57,5.14 -10.33,5.88 -14.7,5.88 -14.73,0 -32.35,-7.54 -36.17,-15.6 -1.28,-2.63 -0.9,-5.14 1.04,-7.57 4.1,-5.14 11.06,-6.23 16.18,-6.23 12.81,0 27.89,6.8 32.9,14.89zm-79.07 -22.38c0.16,0.58 0.08,0.99 -0.25,1.48 -1.23,1.5 -5.74,3.28 -14.64,3.28 -14.13,0 -32.02,-4.53 -36.18,-11.31 -1.09,-1.72 -1.12,-3.5 -0.14,-5.49 2.76,-5.55 9.32,-6.69 14.29,-6.69 14.78,0 34.78,10.17 36.91,18.74zm-76.58 -21.69c0.16,1.58 -0.35,2.95 -1.47,4.21 -2.76,3.03 -9.16,4.89 -17.02,4.89 -11.01,0 -24.84,-3.71 -30.79,-12.02 -3.01,-4.13 -3.61,-8.96 -1.75,-14.42 1.56,-4.75 8.22,-5.47 12.05,-5.47 16.12,0 37.9,11.04 38.99,22.81zm-122.46 193.01c-11.56,-0.71 -12.43,-13.53 -12.27,-18.94 0.52,-16.34 10.93,-36.23 22.38,-36.23 1.12,0 2.24,0.22 3.36,0.57 11.67,3.88 17.32,13.99 15.22,26.99 -2.21,13.61 -13.03,27.63 -27.35,27.63 -0.41,0 -0.87,0 -1.34,-0.03zm-69.51 -59.84c11.72,0 18.31,4.54 19.1,13.09 1.17,13.03 -11.78,32.27 -23.09,34.35 -8.22,1.55 -13.06,-10.6 -13.06,-22.35 0.03,-12.52 5.3,-25.09 17.05,-25.09zm4.89 -95.76c1.04,-18.94 9.48,-38.12 23.47,-38.12 1.04,0 2.13,0.08 3.22,0.3 25.17,4.89 24.81,29.02 24.16,36.34 -1.83,19.15 -14.51,39.67 -30.41,39.67 -0.66,0 -1.28,-0.03 -1.94,-0.11 -14.07,-1.53 -19.45,-20.85 -18.5,-38.09zm106.64 -63.5c2.76,3.09 4.13,6.07 3.86,8.28 -0.36,2.76 -6.01,4.59 -14.13,4.59 -14.34,0 -32.79,-5.35 -37.38,-13.36 -1.42,-2.46 -1.28,-4.98 0.3,-7.73 2.84,-4.81 7.62,-7.27 14.29,-7.27 12.05,0.03 26.53,8.03 33.06,15.49zm-76.97 -25.14c1.5,1.72 2.21,3.31 2.02,4.48 -0.38,2.6 -7.49,5.22 -18.86,5.22 -12.51,0 -28.22,-3.39 -33.33,-10.87 -1.83,-2.73 -2.05,-5.76 -0.63,-9.32 1.81,-4.51 7.41,-5.44 11.78,-5.44 13.94,-0.03 32.73,8.69 39.02,15.93zm-127.57 55c2.16,-14.15 11.17,-29.18 23.61,-29.18 0.52,0 1.01,0.05 1.5,0.08 17.6,1.75 21.97,3.52 28.53,18.36 3.28,7.38 2.16,22.54 -5.35,34.1 -3.75,5.8 -10.55,12.65 -21.56,12.65 -3.03,0 -6.26,-0.52 -9.65,-1.58 -15.74,-5 -19.15,-21.07 -17.08,-34.43zm9.43 107.63c0.96,0 1.91,0.11 2.92,0.38 15.99,3.96 24.56,13.99 23.01,26.72 -1.45,11.67 -11.89,24.29 -26.23,24.29 -0.49,0 -0.98,0 -1.5,-0.05 -11.94,-0.74 -15.82,-12.82 -15.46,-23.83 0.41,-13.28 7.13,-27.51 17.27,-27.51zm45.11 -180.44c-1.56,4.07 -10.6,6.94 -22.13,6.94 -11.86,0 -25.87,-3.17 -30.49,-10.19 -1.83,-2.76 -1.97,-5.85 -0.44,-9.43 1.04,-2.4 5.85,-3.83 12.87,-3.83 15.44,0 35,6.39 39.51,12.9 1.2,1.69 0.98,2.87 0.68,3.6zm-1684.12 564.11c-2.57,1.31 -5.11,1.97 -7.49,1.97 -9.4,0 -14.97,-9.7 -15.5,-18.8 -0.54,-9.48 4.16,-20.19 18.83,-21.83 0.87,-0.08 1.72,-0.19 2.54,-0.19 8.25,0 14.81,5.08 16.62,12.79 1.83,7.68 -1.01,19.1 -15,26.06zm-21.97 -94.04c-5.41,7.84 -16.34,12.9 -27.84,12.9 -7.92,0 -15.82,-2.38 -22.84,-6.86 -12.51,-7.95 -18.47,-22.95 -14.54,-36.48 3.52,-12.13 13.88,-19.34 27.65,-19.34 2.95,0 6.12,0.33 9.35,0.96 13.06,2.62 23,13.5 30.46,33.39 2.46,6.53 0.11,11.99 -2.24,15.44zm-82.52 30.6c-3.33,4.18 -10.49,6.77 -18.63,6.77 -13.45,0 -28.34,-6.77 -31.37,-21.97 -2.4,-12.18 2.27,-22.21 15.27,-32.62 1.66,-1.34 3.41,-1.94 5.41,-1.94 11.17,0 26.67,20.22 31.23,40.79 0.74,3.42 0.11,6.5 -1.91,8.96zm-32.54 116.26c3.12,-1.37 6.59,-2.08 10.3,-2.08 11.97,0 26.83,7.16 40.82,19.53 6.56,5.85 8.82,16.94 5.76,28.25 -4.62,17.1 -19.73,29.84 -40.36,33.96 -2.29,0.46 -4.56,0.66 -6.69,0.66 -17.95,0 -27.62,-15.35 -30.68,-29.75 -3.99,-18.72 1.89,-42.13 20.84,-50.57zm47.11 -54.18c0,-10.14 6.83,-15.96 18.8,-15.96 10.6,0 18.52,5.16 20.65,13.44 2,7.7 -1.47,18.5 -13.69,25.3 -2.13,1.2 -4.34,1.78 -6.53,1.78 -10.65,0 -19.23,-13.44 -19.23,-24.56zm-147.08 49.15c4.64,-5.96 11.04,-9.26 17.98,-9.26 1.09,0 2.21,0.08 3.39,0.24 21.04,3.01 33.06,12.33 32.18,24.97 -0.93,12.98 -16.12,26.86 -37.21,26.86 -17.08,0 -23.14,-11.75 -23.14,-22.68 -0.03,-7.21 2.46,-14.54 6.8,-20.14zm51.72 -65.49c-5.03,2.43 -11.86,3.77 -19.29,3.77 -14.92,0 -30.03,-5.55 -30.03,-16.2 0,-11.48 3.63,-19.23 22.76,-27.4 2.68,-1.12 5.41,-1.7 8.14,-1.7 13.99,0 26.26,14.84 26.26,31.78 0.03,4.97 -4.26,8.06 -7.84,9.75zm397.98 -245.71c-2.43,4.89 -8.42,7.7 -16.36,7.7 -13.5,0 -32.35,-8.23 -44.02,-26.59 -6.01,-9.48 -3.94,-17.59 -1.12,-22.7 5.68,-10.38 19.29,-17.62 33.03,-17.62 8.8,0 16.99,2.87 23.69,8.39 9.59,7.87 12.24,35.9 4.78,50.82zm-70.93 2.95c19.98,7.46 19.98,22.08 19.98,32.71 0,3.33 -1.97,8.83 -6.31,13.64 -3.41,3.77 -9.34,8.28 -18.31,8.28 -5.52,0 -11.42,-1.7 -17.62,-5.11 -12.95,-7.05 -15.93,-21.18 -13.17,-32.05 2.32,-9.13 9.95,-19.78 23.8,-19.78 3.69,0.03 7.59,0.82 11.64,2.32zm0.27 182.87c-1.66,0.38 -3.41,0.54 -5.11,0.54 0,0 0,0 0,0 -10.87,0 -21.58,-7.76 -23.82,-17.32 -1.83,-7.76 2.29,-14.59 11.69,-19.29 4.95,-2.46 9.48,-3.72 13.53,-3.72 10.79,0 15.58,8.77 16.47,16.94 1.01,9.48 -3.09,20.71 -12.76,22.84zm113.31 -947.69c-1.53,16.75 -29.89,41.42 -53.34,41.42 -0.54,0 -1.06,-0.03 -1.61,-0.03 -12.6,-0.66 -14.23,-10.16 -14.1,-15.79 0.41,-17.1 18.17,-42.95 43.88,-42.95 2.35,0 4.73,0.22 7.1,0.66 8.8,1.64 19.07,5.85 18.06,16.7zm-108.34 116.07c1.64,-11.09 8.88,-23.44 16.7,-23.44 1.2,0 2.43,0.33 3.63,0.93 5.35,2.68 5.88,11.8 4.02,19.65 -2.27,9.7 -8.47,19.51 -15.9,19.51 -0.87,0 -1.72,-0.14 -2.59,-0.41 -7.32,-2.21 -6.31,-12.98 -5.85,-16.23zm-25 -68.61c8.85,0 13.66,8.53 14.34,16.45 0.74,8.06 -2.43,16.91 -11.17,18.5 -0.66,0.11 -1.31,0.19 -1.94,0.19 -9.07,0 -16.34,-11.7 -16.34,-21.37 0.03,-4.13 1.5,-13.77 15.11,-13.77zm33.6 -101.78c12.71,0 23.93,5.25 28.61,13.45 3.3,5.74 3.41,12.49 0.35,17.98 -3.77,6.83 -13.99,15.16 -41.31,16.2 -17.98,0.77 -29.86,-5.08 -31.37,-15.16 -1.47,-10.19 8.44,-23.93 30.25,-30.49 4.4,-1.34 8.91,-1.97 13.47,-1.97zm-69.97 -39.43c10.63,0 19.62,3.55 22.35,8.8 1.69,3.28 1.04,7.16 -2,11.56 -4.7,6.77 -14.48,10.82 -26.15,10.82 -12.27,0 -23.25,-4.51 -25.57,-10.49 -1.7,-4.4 1.8,-8.85 5.08,-11.8 6.09,-5.57 15.93,-8.88 26.29,-8.88zm-32.6 62.84c1.34,-0.33 2.6,-0.49 3.72,-0.49 3.99,0 6.45,1.97 7.48,5.96 2.43,9.13 -3.6,25.55 -10.95,29.73 -0.6,0.35 -1.18,0.54 -1.7,0.54 -3.11,0 -6.26,-6.12 -7.13,-13.93 -1.04,-9.32 1.18,-20.11 8.58,-21.8zm36.07 68.93c-5.11,2.05 -11.37,-7.16 -12.51,-17.16 -0.52,-4.56 -0.58,-15.44 10.27,-17.95 1.26,-0.3 2.49,-0.46 3.55,-0.46 4.62,0 7.46,2.68 8.55,7.95 2.08,9.81 -3.31,24.81 -9.86,27.62zm110.22 130.39c0,-8.69 3.77,-18.31 9.4,-23.93 3.58,-3.58 7.79,-5.49 12.13,-5.49l0 -1.45c2.02,0 3.99,-0.35 6.2,0.38 21.37,7.13 14.24,46.26 -14.23,48.06 -0.49,0 -0.77,-0.27 -1.26,-0.27l0 -1.8c-11.01,-0.03 -12.24,-10.82 -12.24,-15.49zm1047.07 1309.82c2.65,4.95 2.95,10.19 0.79,13.39 -0.96,1.45 -2.21,2.13 -3.88,2.13 -4.13,0 -9.62,-4.21 -12.24,-9.43 -1.06,-2.21 -2.54,-6.42 0.06,-9.84 1.78,-2.43 3.8,-3.69 5.93,-3.69 3.33,0 6.97,2.95 9.35,7.43zm-928.81 -1437.81c-2.9,18.66 -26.72,42.76 -48.06,42.76 -2.19,0 -4.35,-0.27 -6.34,-0.79 -10.57,-2.82 -11.72,-11.53 -10.85,-18.39 2.54,-19.64 24.1,-44.54 44.7,-44.54 2.65,0 5.22,0.41 7.68,1.17 12.57,3.99 13.91,12.95 12.87,19.78zm-31.2 155.22c1.37,-10.36 8.53,-21.34 19.13,-21.34 2.02,0 4.13,0.41 6.26,1.2 12.08,4.54 14.78,15.06 13.25,23.39 -1.78,9.7 -9.48,19.56 -20.87,19.56 -1.75,0 -3.55,-0.25 -5.36,-0.74 -10.9,-2.87 -13.55,-13.3 -12.41,-22.08zm905.2 431.23c-0.3,6.29 -4.62,13.64 -15.98,13.64 -6.1,0 -11.09,-1.78 -14.51,-5.14 -2.95,-2.87 -4.59,-6.78 -4.59,-10.98 0,-7.46 5.22,-15.46 16.64,-15.46 0.71,0 1.5,0.05 2.27,0.14 11.01,0.96 16.56,9.92 16.18,17.81zm-58.25 598.83c2.21,-1.39 4.48,-1.75 6.66,-1.75l0 1.86c4.05,0 8.5,2.57 12.05,7 3.52,4.29 5.6,9.59 5.6,14.18 0,6.94 -4.73,10.63 -13.55,10.63l0 1.67c-1.34,0 -2.13,0.43 -3.69,0.3 -18.06,-1.83 -20.93,-25.09 -7.08,-33.88zm65.3 162c0.74,-0.58 1.5,-0.82 2.29,-0.82 5.85,0 12.54,13.85 13.31,24.2 0.11,1.83 0.3,7.9 -2.92,8.36 -0.33,0.03 -0.66,0.08 -1.04,0.08 -6.28,0 -14.42,-7.4 -17.02,-15.46 -1.47,-4.67 -1.75,-11.28 5.38,-16.36zm-23.42 -34.05c-8.99,3.72 -17.92,-10.22 -19.56,-22.51 -0.46,-3.25 -1.2,-14.07 6.66,-16.12 2.82,-0.74 5.38,-1.12 7.76,-1.12 11.56,0 14.89,8.47 15.85,13.53 2.11,10.9 -2.9,23.14 -10.71,26.23zm-23.06 62.35c-5.96,7.65 -16.09,11.94 -28.64,11.94 -0.05,0 -0.05,0 -0.05,0 -4.07,0 -8.44,-0.46 -12.95,-1.34 -17.41,-3.47 -24.37,-20.82 -23.47,-35.52 0.96,-15.46 10.68,-31.75 30.36,-33.31 0.87,-0.08 1.72,-0.08 2.57,-0.08 23.33,0 33.03,26.37 36.18,37.68 1.97,7.24 0.49,14.73 -3.99,20.63zm5.54 -1129.33c-1.01,0.82 -1.97,1.23 -3,1.23 -4.98,0 -10.88,-9.18 -11.94,-18.5 -0.58,-4.67 -0.22,-12.76 7.92,-14.65 1.64,-0.38 3.17,-0.57 4.59,-0.57 4.84,0 8.09,2.21 9.67,6.56 2.92,7.84 -0.58,20.19 -7.24,25.93zm88.53 -442.22c-1.74,-3.99 -1.53,-7.13 0.77,-9.62 3.23,-3.52 7.73,-5.3 13.36,-5.3 16.15,0 36.34,14.02 45.08,27.13 4.29,6.48 5.68,12.49 3.91,16.86 -1.23,2.92 -4.21,4.4 -8.93,4.4 -16.97,0 -47.87,-19.07 -54.18,-33.47zm7.57 111.75c1.12,-0.79 2.59,-1.2 4.37,-1.2 8.69,0 23.17,9.84 27.13,20.9 2.05,5.71 0.74,10.55 -3.85,14.32 -2.76,2.24 -5.88,3.39 -9.32,3.39 -9.4,0 -20.19,-8.96 -23.61,-19.54 -1.34,-4.32 -2.49,-12.32 5.27,-17.87zm-26.29 47.68c3.39,-4.13 8.09,-6.31 13.61,-6.31 9.02,0 19.18,5.84 24.16,13.96 2.48,3.96 4.73,10.11 1.39,16.75 -2.76,5.55 -8.31,6.72 -12.52,6.72 -10.93,0 -24.26,-7.84 -28.5,-16.78 -2.4,-5.08 -1.78,-9.92 1.86,-14.34zm14.21 -101.88c-1.04,-4.45 0.46,-7.62 4.67,-9.7 2.13,-1.09 5,-1.64 8.52,-1.64 15.33,0 38.77,10.36 46.09,23.74 2.95,5.44 2.82,10.74 -0.44,15.79 -2.4,3.75 -6.31,5.63 -11.69,5.63 -18.17,0 -44.04,-20.47 -47.16,-33.83zm5.36 197.43c-2.98,5.41 -6.88,8.14 -11.59,8.14 -10.33,0 -23.42,-13.74 -26.48,-27.76 -1.17,-5.49 -1.64,-15.38 8.77,-20.14 2.87,-1.28 6.01,-1.94 9.35,-1.94 8.96,0 17.57,4.78 21.94,12.18 4.78,8.14 4.07,18.61 -1.99,29.51zm-42.82 158.58c-1.12,0.71 -2.29,1.06 -3.47,1.06 -5.55,-0.03 -11.94,-7.95 -13.64,-16.97 -0.71,-3.71 -1.53,-12.71 6.53,-15.93 1.39,-0.54 2.73,-0.82 3.99,-0.82 6.07,0 9.97,6.04 11.61,11.72 2.1,7.51 1.12,17.08 -5.03,20.93zm-6.86 -107.19c-2.21,2.95 -4.89,4.45 -7.87,4.45 -8.23,0 -18.91,-11.07 -22.87,-23.69 -1.26,-3.99 -3.47,-13.88 3.36,-18.69 2.29,-1.61 4.86,-2.4 7.65,-2.4 7.78,0 16.47,6.39 21.04,15.57 4.37,8.77 3.93,17.76 -1.31,24.76zm-13.91 186.75c1.2,-0.19 2.46,-0.3 3.77,-0.3 17.27,0 39.18,20.08 41.75,38.39 1.55,10.74 -4.07,18.31 -16.23,21.86 -3.25,0.96 -6.58,1.42 -9.89,1.42 -21.26,0 -38.88,-19.7 -40.41,-37.29 -1.12,-12.76 6.5,-21.53 21.01,-24.07zm49.59 -28.2l0 -1.91c-2.54,0 -5.63,-2.27 -8.22,-6.04 -2.63,-3.85 -4.24,-8.61 -4.24,-12.43 0,-5.11 2.76,-7.7 8.17,-7.7l0 -1.67c1.15,-0.03 1.91,-0.41 3.31,-0.22 12.49,1.78 17.76,17.82 5.33,28.5 -1.34,1.17 -2.81,1.47 -4.34,1.47zm-111.48 353.85c1.12,0 2.24,0.08 3.42,0.22 11.23,1.26 15.9,9.7 15.46,17.1 -0.41,7.98 -6.97,16.04 -20.57,16.04 -5.71,0 -10.44,-1.7 -13.64,-4.89 -2.82,-2.82 -4.34,-6.64 -4.34,-10.82 0,-8.77 6.77,-17.65 19.67,-17.65zm21.86 -475.85c-1.06,0.22 -2.16,0.35 -3.25,0.35 -10.52,0 -18.14,-11.45 -18.69,-22.16 -0.22,-4.64 0.57,-20 20.82,-22.05 0.3,-0.03 0.55,-0.03 0.82,-0.03 7.32,0 12.73,10.11 13.77,19.86 1.01,9.51 -1.91,21.53 -13.47,24.02zm-21.45 120.88c-5.63,0 -13.5,-3.77 -15.71,-9.18 -1.31,-3.09 -0.38,-6.2 2.68,-9.26 3.41,-3.39 6.75,-5.16 9.67,-5.16 5.79,0 9.83,7.38 9.83,17.92 0,1.97 -0.57,3.42 -1.69,4.34 -1.15,0.88 -2.76,1.34 -4.78,1.34zm-7.13 109.45c0.58,-0.08 1.17,-0.11 1.75,-0.11 8.09,0 13.8,8.12 15.25,16.12 1.34,7.32 -0.58,16.42 -10.03,19.95 -1.42,0.54 -2.84,0.82 -4.15,0.82 -7.62,0 -12.27,-9.16 -12.95,-18.23 -0.6,-8.41 2.35,-17.4 10.14,-18.55zm7.32 137.46c-5.38,0 -10.19,-2.57 -13.96,-7.32 -4.51,-5.85 -4.97,-13.85 -1.26,-21.5 4.05,-8.25 11.91,-13.85 19.54,-13.85 4.78,0 9.24,2.05 13.28,6.1 7.87,7.89 6.01,16.45 4.15,20.87 -3.69,8.93 -13.03,15.71 -21.75,15.71zm-65.03 150.79c0.06,4.4 -1.12,8.39 -3.25,11.12 -2.38,3.03 -5.85,4.59 -10.3,4.59l0 1.7c-1.04,0.03 -1.75,0.41 -2.92,0.3 -28.5,-3.55 -28.58,-36.91 -1.72,-40.98 0.88,-0.13 1.58,0.25 2.4,0.3l0 1.7c9.73,-0.03 15.79,11.01 15.79,21.28zm-134.92 -50.14c-4.37,2.21 -9.48,3.31 -15.08,3.31 -21.97,0 -46.94,-17.38 -49.56,-30.27 -1.8,-9.07 0.11,-17.38 5.55,-24.04 7.29,-8.85 20.49,-14.4 34.45,-14.4 7.87,0 15.11,1.8 20.96,5.11 12.21,7.02 19.89,20.57 19.51,34.56 -0.33,11.5 -6.07,20.9 -15.82,25.74zm112.71 -365.22c-1.26,8.33 -8.44,9.21 -11.48,9.21 -6.97,0 -14.1,-4.07 -16.28,-9.29 -1.78,-4.37 -0.16,-9.24 4.67,-14.1 3.25,-3.25 7.51,-5.11 11.69,-5.11 3.42,0 6.48,1.31 8.53,3.71 2.92,3.42 3.91,8.8 2.87,15.58zm-149.62 427.66c7.92,-11.15 21.2,-17.54 36.5,-17.54 8.14,0 16.75,1.74 25.52,5.3 14.7,5.88 23.36,18.36 23.77,34.26 0.43,16.01 -7.73,30.71 -20.36,36.58 -7,3.25 -15.14,4.97 -23.55,4.97 -21.86,0 -40.98,-11.04 -46.5,-26.86 -4.54,-12.84 -2.84,-26.23 4.62,-36.72zm107.73 -145.85c-2.9,2.29 -6.07,3.47 -9.26,3.47 -11.91,0 -22.73,-15.08 -25.08,-28.64 -0.82,-4.97 -1.64,-17.02 9.67,-21.04 3.03,-1.09 6.15,-1.64 9.1,-1.64 12.29,0 20.98,9.21 24.12,18.33 3.01,8.66 2.32,20.99 -8.55,29.51zm52.68 -385.33c-2,6.69 -8.64,7.4 -11.45,7.4 -6.29,0 -12.87,-3.2 -15.85,-7.76 -2.13,-3.25 -2.37,-6.83 -0.74,-10.68 1.34,-3.12 5.25,-4.97 10.46,-4.97 6.56,0 13.03,2.81 16.12,6.94 1.91,2.71 2.43,5.71 1.45,9.07zm-69.27 39.32c2.24,-2.87 5.17,-4.35 8.69,-4.35 6.31,0 14.23,4.89 19.23,11.89 3.99,5.46 5.38,11.06 3.94,15.41 -1.45,4.43 -7.49,4.89 -10,4.89 -8.8,0 -20.65,-4.95 -24.51,-12.9 -2.32,-4.67 -1.42,-9.7 2.65,-14.94zm-81.64 621.07c4.75,-9.56 34.26,-21.92 59.1,-21.92 7.4,0 13.53,1.07 18.25,3.25 12.73,5.87 26.29,20.57 26.29,36.17 0.03,13.58 -10.3,25.63 -29.89,34.73 -9.02,4.21 -17.98,6.34 -26.67,6.34 -17.6,0 -33.66,-9.04 -43.01,-24.21 -7.27,-11.72 -8.82,-24.92 -4.07,-34.37zm28.83 149.65c6.58,-12.21 23.8,-18.17 36.94,-18.58 0.87,0 1.69,-0.03 2.57,-0.03 28.58,0 39.92,14.02 44.48,25.77 6.75,17.65 1.47,39.04 -7.51,47.13 -4.98,4.45 -11.89,6.8 -20,6.8 -16.5,0 -39.34,-10.22 -53.28,-33.06 -6.53,-10.52 -7.57,-19.98 -3.2,-28.03zm40.74 122.68c8.08,-15.11 25.57,-24.84 44.51,-24.84 3.77,0 7.59,0.38 11.39,1.12 17.65,3.55 24.48,23.42 21.97,40.33 -1.78,11.91 -28.2,24.95 -50.49,24.95 -8.71,0 -20.49,-2 -26.83,-11.56 -5.85,-8.82 -6.07,-19.75 -0.54,-30zm80.68 -272.32c-2.46,-3.86 -3.85,-9.16 -3.85,-14.51 0,-10.19 4.97,-20.47 16.04,-20.47l0 -1.45c1.58,-0.05 2.9,-0.57 4.75,-0.19 26.72,5.33 21.37,39.21 -3.55,44.54 -1.2,0.25 -2.13,-0.24 -3.25,-0.24l0 -1.56c-5.11,0 -8.33,-3.33 -10.14,-6.12zm48.17 187.54c-2.84,1.17 -5.54,1.75 -8,1.75 -9.67,0 -14.42,-9.43 -14.7,-18.14 -0.33,-9.4 4.18,-19.75 14.78,-20.44 0.68,-0.06 1.42,-0.11 2.08,-0.11 11.15,0 20.14,6.23 21.91,15.16 1.75,8.77 -4.23,16.89 -16.07,21.78zm-4.42 -795.2c-1.58,1.97 -3.42,2.95 -5.68,2.95 -7.05,0 -16.26,-9.67 -18.31,-19.18 -1.01,-4.67 -0.57,-10.98 6.97,-14.32 1.61,-0.71 3.22,-1.07 4.83,-1.07 5.44,0 10.85,4.02 13.91,10.25 2.79,5.65 3.79,14.26 -1.72,21.37zm-112.27 141.97c33.8,5.35 26.72,46.31 0,48.06 -0.46,0.03 -0.77,-0.24 -1.26,-0.24l0 -1.83c-5.63,0 -10.96,-3.03 -14.97,-8.52 -3.71,-5.11 -5.93,-11.94 -5.93,-18.23 0,-4.1 1.26,-17.54 16.8,-17.54l0 -1.5c1.83,0 3.25,-0.52 5.36,-0.19zm-54.7 132.24c-7.9,17.84 -25.71,32.05 -41.53,33.01 -18.41,1.26 -49.53,-0.46 -67.27,-20.74 -11.7,-13.44 -15.88,-33.17 -12.41,-58.74 3.36,-24.62 26.45,-42.49 54.94,-42.49 21.18,0 40.82,9.78 55.28,27.57 21.42,26.29 16.04,49.73 10.98,61.39zm-154.07 133.14c9.83,0 25.9,7.1 28.69,18.25 0.96,3.94 -0.3,8.39 -3.55,12.54 -5.63,7.19 -15.57,12.02 -24.78,12.02 -1.64,0 -3.25,-0.19 -4.78,-0.46 -8.14,-1.66 -14.81,-11.8 -14.84,-22.59 0,-4.89 1.61,-16.5 16.61,-19.56 0.79,-0.14 1.67,-0.19 2.65,-0.19zm-6.92 151.64c2.11,-8.88 8.88,-18.44 18.8,-18.44 1.34,0 2.73,0.16 4.1,0.54 1.78,0.44 3.41,0.79 4.92,1.15 10.3,2.24 13.42,2.95 14.84,20.08 0.49,5.82 -1.04,10.82 -4.4,14.48 -3.83,4.15 -10,6.56 -16.97,6.56 -5.03,0 -10.14,-1.23 -14.73,-3.55 -7.57,-3.8 -8.25,-13.61 -6.56,-20.82zm24.4 54.94c4.65,-2.29 10.19,-4.67 16.34,-4.67 4.81,0 9.34,1.5 13.5,4.51 5.19,3.71 3.44,11.34 2.43,14.42 -3.03,9.43 -11.72,19.16 -21.07,19.16 -0.44,0 -0.85,-0.06 -1.28,-0.11 -9.04,-0.85 -17.68,-8.66 -19.26,-17.35 -1.2,-6.69 2.08,-12.38 9.34,-15.96zm12.16 99.84c1.04,-0.35 2.16,-0.58 3.33,-0.58 9.51,0 21.5,10.49 24.26,18.77 1.94,5.79 1.39,15.33 -2.84,21.18 -2.76,3.85 -6.78,5.76 -11.89,5.76 -2.32,0 -4.89,-0.38 -7.62,-1.17 -13.01,-3.72 -19.02,-14.78 -19.21,-24.07 -0.19,-9.54 5.03,-16.94 13.96,-19.89zm14.86 83.31c4.64,-3.47 8.06,-5.76 12.81,-5.76 2.84,0 6.09,0.79 9.97,2.46 4.7,1.99 5.79,7.73 5.27,12.4 -0.9,7.87 -6.69,17.24 -17.27,19.15 -9.1,1.7 -17.65,-2.43 -19.92,-9.29 -2.05,-6.15 1.28,-13.09 9.12,-18.96zm59.51 180.58c4.78,-14.32 12.18,-19.92 26.45,-19.92 3.22,0 5.76,1.69 7.62,5.05 4.53,8.2 3.41,23.44 -2.35,32.68 -2.38,3.8 -6.56,4.59 -9.67,4.59 -7.24,0 -15.57,-4.26 -19.83,-10.19 -1.94,-2.73 -3.94,-7.05 -2.21,-12.21zm60.74 54.86c0.49,-0.11 0.96,-0.16 1.56,-0.16 4.95,0 13.22,3.47 17.67,8.63 2.49,2.84 3.53,5.76 3.06,8.71 -0.58,3.94 -4.4,23.55 -24.04,23.55 -1.75,0 -3.61,-0.16 -5.49,-0.46 -9.53,-1.64 -10.87,-10.13 -11.01,-13.77 -0.41,-10.44 6.48,-23.58 18.25,-26.5zm105.27 -83.8c7.05,-2.38 12.73,-3.94 17.65,-3.94 9.48,0 16.8,5.93 27.95,22.65 4.32,6.5 4.81,13.09 1.34,19.59 -6.5,12.13 -26.17,21.69 -44.78,21.69 -4.64,0 -8.96,-0.57 -12.95,-1.75 -11.64,-3.41 -18.74,-12.18 -18.94,-23.36 -0.22,-11.42 7.46,-27.46 29.73,-34.89zm81.88 -89.7c-0.76,4.29 -3.96,14.34 -16.66,14.34 -10.44,0 -16.91,-11.53 -16.91,-22.19 0,-8.14 3.85,-16.81 14.56,-16.81 3.09,0 6.64,0.71 10.49,2.16 6.28,2.4 10.27,12.87 8.52,22.49zm-38.06 -129.48c-0.52,0.03 -0.88,-0.25 -1.37,-0.25l0 -1.83c-11.75,0 -18.11,-11.23 -18.11,-21.8 0,-5.25 1.55,-10.05 4.32,-13.5 3.14,-3.86 7.73,-5.9 13.36,-5.9l0 -1.5c2.3,-0.05 4.37,-0.38 7.13,0.25 23.17,5.33 23.14,42.73 -5.33,44.54zm-234.43 158.66c2.4,-0.66 4.48,-0.98 6.39,-0.98 7.02,0 11.61,4.59 20,12.95 3.36,3.36 4.13,8.14 2.1,13.03 -2.62,6.31 -10.55,13.66 -24.4,13.66 -0.9,0 -1.83,0 -2.79,-0.08 -12.46,-0.9 -14.81,-10.6 -15.25,-14.67 -0.9,-9.32 4.13,-21.04 13.94,-23.91zm105.16 247.3c3.85,-11.25 15.11,-23.31 28.42,-23.31 3.14,0 6.2,0.71 9.16,2.05 7.1,3.2 11.86,8.09 14.1,14.48 2.65,7.4 1.7,16.66 -2.68,25.33 -2.29,4.59 -9.01,15.27 -21.53,15.27 -6.61,0 -13.88,-2.95 -21.53,-8.88 -7.27,-5.57 -9.43,-14.67 -5.93,-24.95zm83.31 -89.89c7.95,-8.66 25.27,-17.84 41.72,-17.84 9.7,0 22.3,3.33 27.1,19.26 1.91,6.34 -0.82,11.97 -3.5,15.49 -6.47,8.74 -19.7,15.6 -30.05,15.6 -16.7,0 -39.07,-2.21 -40.6,-21.2 -0.3,-3.33 1.56,-7.24 5.33,-11.31zm203.14 -780.56c2.43,-0.66 4.81,-1.07 7.08,-1.07 7.65,0 14.23,4.26 17.43,11.42 3.55,7.9 2.19,17.16 -3.5,23.55 -1.7,1.86 -3.94,2.79 -6.67,2.79 -10.41,0 -24.48,-12.54 -25.96,-23.17 -0.93,-6.47 3.01,-11.01 11.61,-13.52zm72.41 -683.34c-0.52,0.82 -1.69,1.2 -3.33,1.2 -9.89,0 -31.42,-13.91 -35.65,-24.95 -1.58,-4.13 -0.06,-6.18 1.26,-7.35 2.43,-2.16 5.16,-3.25 8.28,-3.25 9.7,0 21.39,10.9 27.02,21.45 3.03,5.71 3.96,10.63 2.43,12.9zm-168.28 171.97c-3.74,1.89 -8.69,2.82 -14.75,2.82 -25.03,0 -56.94,-15.46 -56.94,-27.6 0,-15.98 19.15,-31.09 39.37,-31.09 5.11,0 10,0.93 14.65,2.79 17.08,6.83 26.78,23.44 27.29,35.6 0.36,8 -3.06,14.23 -9.62,17.48zm-79.81 99.57c-2.08,0.66 -4.29,1.01 -6.53,1.01 -22.73,0 -48.96,-32.57 -53.34,-53.04 -1.17,-5.49 -1.36,-12.6 4.43,-15.22 2.95,-1.31 6.23,-2 9.62,-2 23.06,0 51.2,30.58 54.62,52.54 1.31,8.85 -1.64,14.45 -8.8,16.7zm-53.44 -0.85c5.6,11.34 5.9,21.67 0.74,28.34 -2.54,3.36 -6.42,5.06 -11.48,5.06 -15.82,0 -37.24,-16.09 -43.3,-32.51 -2.51,-6.75 -3.47,-16.5 6.23,-24.84 3.41,-2.92 7.4,-4.43 11.86,-4.43 12.52,0 27.98,12.19 35.96,28.39zm-65.88 79.21c-3.47,1.15 -6.78,1.72 -9.84,1.72 -7.54,0 -13.28,-3.52 -15.35,-9.4 -2,-5.63 -0.55,-14.48 9.43,-22.46 2.16,-1.72 4.59,-2.63 7.13,-2.63 7.9,0 16.78,8.8 18.28,18.09 0.6,4.04 0.25,11.39 -9.64,14.67zm-49.75 135.77c10.19,0 15.27,8.42 16.64,16.26 1.91,11.09 -2.68,25.25 -14.95,29.65 -1.64,0.57 -3.22,0.87 -4.81,0.87 -10.25,0 -17.92,-12.13 -18.69,-23.44 -0.3,-4.78 0.14,-20.6 19.1,-23.14 0.96,-0.14 1.83,-0.19 2.71,-0.19zm-144.38 134.92c-2.29,0.9 -4.7,1.34 -7.21,1.34 -10.19,0 -20.57,-7.87 -21.77,-16.5 -1.04,-7.32 4.7,-13.11 16.09,-16.42 0.49,-0.11 1.04,-0.19 1.58,-0.19 6.67,0 17.38,9.51 19.21,19.23 1.09,5.9 -1.56,10.11 -7.9,12.54zm-26.58 87.52c1.75,-1.04 3.74,-1.58 5.9,-1.58 9.59,0 21.39,10.13 25.25,21.72 1.5,4.56 2.87,13.09 -5.06,19.02 -3.01,2.27 -6.61,3.42 -10.66,3.42 -11.39,0 -24.01,-9.43 -26.99,-20.14 -2.38,-8.58 1.72,-16.55 11.56,-22.43zm-97.16 -29.37c1.55,0 3.22,0.08 5,0.27 10.76,1.2 14.1,11.07 13.63,19.15 -0.57,10.19 -7.08,20.66 -18.5,19.32 -11.69,-1.29 -19.81,-13.8 -19.23,-24.13 0.52,-9.29 7.49,-14.62 19.1,-14.62zm-197.85 85.27c-11.5,0 -24.12,-8.58 -35.52,-24.29 -7.87,-10.82 -9.78,-20.96 -5.54,-29.29 5.05,-9.89 19.12,-16.83 34.21,-16.83 8.55,0 16.28,2.27 21.72,6.34 21.09,15.82 25.14,25.33 7.54,50.49 -6.23,8.91 -13.99,13.58 -22.41,13.58zm-10.85 -277c2.49,-2.48 5.57,-3.74 9.15,-3.74 8.96,0 19.87,8.09 23.83,17.68 1.72,4.15 2.76,10.19 -2.16,15.11 -2.57,2.54 -5.76,3.85 -9.54,3.85 -9.1,0 -20.05,-7.9 -23.9,-17.21 -1.72,-4.24 -2.71,-10.36 2.62,-15.69zm26.34 -74.97c1.12,-6.34 7.3,-9.97 16.97,-9.97 1.01,0 2.05,0.03 3.14,0.11 11.12,0.79 12.02,9.43 11.89,13.09 -0.3,8.22 -6.18,17.35 -14.15,17.35 -1.28,0 -2.65,-0.24 -3.99,-0.74 -10.08,-3.63 -15.03,-13.14 -13.85,-19.84zm-60.96 -40.44c1.37,0 2.84,0.08 4.32,0.3 11.39,1.64 11.39,13.88 11.12,17.59 -0.93,12.87 -9.7,26.64 -21.34,26.64 -1.09,0 -2.19,-0.11 -3.28,-0.35 -10.74,-2.3 -14.56,-13.31 -13.61,-22.57 1.17,-10.76 8.63,-21.61 22.79,-21.61zm122.32 167.65c-2.43,2.71 -5.11,4.07 -7.9,4.07 -7.98,0 -15.76,-10.96 -17.08,-20.41 -0.57,-4.26 -0.38,-11.72 7.54,-14.02 0.87,-0.25 1.86,-0.38 2.92,-0.38 6.45,0 15.49,4.75 18.88,12.43 2.68,5.96 1.15,12.27 -4.37,18.31zm32.87 15.46c-6.58,2.43 -13.63,0.08 -15.33,-4.78 -1.26,-3.55 0.58,-7.62 4.97,-11.12 0.82,-0.63 1.72,-0.96 2.82,-0.96 4.51,0 10.46,5.63 11.39,10.74 0.55,2.98 -0.71,4.97 -3.85,6.12zm-62.38 76.2c5.06,-11.5 17.54,-18.94 31.78,-18.94 7.16,0 14.4,1.8 21.53,5.38 6.67,3.31 10.96,8.22 12.81,14.62 3.04,10.39 -0.96,22.54 -5.68,30.44 -5.03,8.39 -13.44,18.39 -25.03,18.39 -8.55,0 -17.87,-5.44 -27.65,-16.09 -9.73,-10.58 -12.54,-22.9 -7.76,-33.8zm175.71 -30.46c-11.21,9.37 -23.36,14.29 -35.17,14.29 -12.1,0 -23.63,-5.14 -32.4,-14.51 -10.08,-10.74 -15.33,-25.6 -14.37,-40.76 1.64,-26.07 31.66,-44.26 57.6,-44.26 9.94,0 28.01,2.73 37.19,21.07 4.64,9.37 18.85,37.79 -12.84,64.18zm-94.37 286.83c1.58,-0.24 3.09,-0.44 4.53,-0.44 10.82,0 15.99,7.98 16.37,15.88 0.41,8.96 -5.3,19.18 -18.8,20.38 -13.93,1.15 -20.85,-6.88 -21.56,-14.92 -0.77,-8.52 4.95,-18.25 19.45,-20.9zm-84.75 -549.79c-3.06,-9.21 -1.91,-17.62 3.41,-25 7.92,-11.01 24.75,-18.41 41.86,-18.41 13.69,0 24.35,4.78 29.18,13.09 2.4,4.13 0.33,9.43 -1.8,13.17 -8.44,14.7 -33.12,31.78 -52.35,31.78 -10.22,0.03 -17.08,-4.92 -20.3,-14.62zm-15.5 -71.91c-0.52,15.03 -19.83,40.87 -38.74,40.87 -2.87,0 -5.68,-0.62 -8.28,-1.86 -8.66,-4.07 -12.46,-10.68 -10.68,-18.63 3.14,-14.04 22.68,-29.07 46.72,-29.07 1.25,0 2.57,0.05 3.85,0.14 4.97,0.33 7.32,3.11 7.13,8.55zm-121.28 681.79c4.59,-8.8 12.68,-14.26 21.12,-14.26 8.44,0 17,5.14 24.78,14.86 6.53,8.17 5.05,15.82 2.68,20.79 -4.89,10.17 -17.51,17.84 -29.34,17.84 -5.28,0 -12.71,-1.58 -17.98,-9.12 -6.01,-8.58 -6.48,-20.11 -1.26,-30.11zm74.86 -54.54c1.15,-8.63 7.73,-18.75 22.43,-18.75 4.18,0 8.8,0.82 13.69,2.46 7.73,2.57 11.42,9.84 9.86,19.45 -1.81,11.01 -10.74,22.7 -23.74,22.7 -2.05,0 -4.15,-0.3 -6.26,-0.85 -12.79,-3.5 -17.27,-15.44 -15.99,-25.03zm260.28 36.69c-5.35,-8.93 -5.84,-19.02 -1.36,-26.99 3.63,-6.37 9.75,-10.19 16.47,-10.19 5.6,0 11.23,2.68 16.28,7.73 8.69,8.69 6.83,17.65 4.95,22.19 -3.74,8.99 -13.28,15.85 -22.19,15.85 -5.88,0 -10.77,-2.95 -14.15,-8.58zm467.39 404.71c2.02,2.67 3.11,6.42 3.11,10.82 0,10.14 -5.9,21.45 -13.69,21.45l0 1.89c-0.38,0 -0.66,0.24 -1.04,0.19 -17.82,-1.78 -31.01,-38.88 0,-40.93 0.58,-0.03 0.96,0.27 1.5,0.27l0 1.8c4.43,0.03 7.84,1.56 10.11,4.51zm183.88 -1367.18c-16.61,2.13 -35.8,-23.96 -37.71,-43.28 -0.57,-5.9 0.35,-13.28 8.12,-14.86 1.64,-0.3 3.28,-0.46 4.92,-0.46 19.83,0 33.58,23.88 34.73,41.01 0.33,4.83 0,16.23 -10.05,17.59zm-28.47 -94.7c-1.2,3.69 -3.71,5.49 -7.54,5.49 -11.99,0 -34.48,-18.25 -38.72,-34.64 -1.91,-7.38 0.33,-12.87 6.61,-16.37 5.08,-2.81 9.94,-4.21 14.54,-4.21 9.51,0 15.77,5.84 19.32,10.82 7.57,10.44 9.97,26.48 5.79,38.91zm-44.81 41.31c-1.78,0.52 -3.8,0.74 -5.96,0.74 -12.87,0 -28.25,-8.55 -33.66,-18.69 -3.22,-6.07 -2.87,-12.1 1.04,-17.98 2.51,-3.74 5.47,-5.35 9.86,-5.35 3.85,0 8.5,1.17 13.83,2.57 2.46,0.6 5.11,1.28 7.89,1.91 8.88,1.99 15.77,14.04 16.01,23.52 0.08,3.99 -0.96,11.09 -9.02,13.28zm-38.44 16.66c0.79,-0.05 1.61,-0.08 2.35,-0.08 10.76,0 21.15,5.68 27.02,14.84 4.81,7.46 5.63,15.9 2.3,23.2 -2.43,5.3 -10.93,8.5 -22.79,8.5 -0.03,0 -0.03,0 -0.03,0 -17.08,0 -35,-6.17 -41.72,-14.34 -2.29,-2.84 -3.17,-5.82 -2.59,-8.85 3.2,-15.82 11.8,-21.45 35.46,-23.25zm2.73 114.27c-0.79,2.95 -2.87,7.89 -8.22,7.89 -13.22,0 -48.69,-10.63 -60.3,-23.44 -2.57,-2.84 -3.72,-5.55 -3.47,-8.06 1.31,-12.71 12.87,-21.26 28.85,-21.26 8.44,0 17.05,2.38 24.94,6.88 15.16,8.66 21.23,26.45 18.2,37.98zm-91.07 18.58c4.35,-4.89 11.48,-7.6 20.11,-7.6 7.71,0 16.15,2.19 24.37,6.29 20.63,10.3 32.02,27.1 32.24,37.68 0.08,4.59 -1.78,8.03 -5.6,10.14 -1.69,0.96 -4.15,1.45 -7.3,1.45 -23.08,0 -66.61,-23.23 -67.89,-33.63 -0.71,-5.57 0.71,-10.55 4.07,-14.32zm-72.46 106.31c16.89,0 41.89,12.92 57.81,25.66 9.02,7.21 12.84,14.34 10.82,20.19 -1.88,5.36 -8.69,9.1 -16.53,9.1 -2.27,0 -4.48,-0.33 -6.56,-0.96 -19.56,-5.88 -64.02,-30.52 -62.6,-40.38 1.28,-9.15 6.86,-13.61 17.05,-13.61zm-176.91 242.13c-2.95,11.48 -17.46,20.79 -32.3,20.79 -4.29,0 -8.36,-0.77 -12.1,-2.32 -11.64,-4.78 -13.8,-16.67 -11.91,-26.21 2.38,-12.02 11.97,-24.86 25.05,-24.86 3.83,0 7.76,1.12 11.67,3.31 15.33,8.5 22.27,18.91 19.59,29.29zm-40.85 86.42c-0.03,15.49 -9.76,28.96 -26.01,36.07 -4.7,2.08 -9.21,3.11 -13.36,3.11 -10.14,0 -16.15,-6.09 -19.4,-11.17 -7.46,-11.69 -8.14,-29.67 -1.64,-43.8 5.14,-11.15 15.46,-13.5 23.22,-13.5 7.35,0 15.74,2 24.29,5.82 7.87,3.47 12.92,12.68 12.9,23.47zm-111.7 -98.28c-1.66,0.41 -3.36,0.6 -5.05,0.6 -9.1,0 -17.65,-5.98 -18.69,-13.09 -0.96,-6.5 4.87,-12.1 15.96,-15.44 1.12,-0.33 2.27,-0.49 3.39,-0.49 7.49,0 13.06,7.6 13.91,14.62 0.44,3.33 0.33,11.34 -9.51,13.8zm-62.98 22.27c10.52,0 20.96,8.36 26.67,21.31 4.23,9.64 5.9,23.06 -2.13,31.83 -2.76,2.98 -6.39,4.51 -10.82,4.51 -13.58,0 -30.85,-14.02 -35.57,-28.85 -2.16,-6.8 -2.48,-16.5 8.25,-24.1 4.4,-3.12 8.96,-4.7 13.61,-4.7zm-21.69 -71.67c-4.07,9.34 -19.92,16.66 -36.07,16.66 -8.03,0 -22.79,-1.94 -31.45,-14.92 -3.11,-4.7 -3.63,-9.16 -1.45,-13.22 4.24,-7.92 18.47,-13.66 33.8,-13.66 13.39,0 25.05,4.26 32,11.75 4.07,4.37 5.14,8.91 3.17,13.39zm-60.41 72.49c-2.05,2.63 -6.56,4.1 -12.29,4.1 -8.53,0 -19.54,-3.61 -23.2,-10.27 -1.94,-3.53 -1.53,-7.52 1.26,-11.91 4.02,-6.29 9.32,-9.78 14.89,-9.78 9.07,0 17.49,8.85 20.41,21.58 0.63,2.57 0.27,4.62 -1.06,6.28zm-216.15 -189.97c12.27,0 20.47,6.18 23.72,11.48 1.67,2.71 2.19,5.3 1.37,6.91 -0.66,1.34 -1.15,2.93 -1.67,4.75 -2.48,8.55 -6.26,21.5 -37.57,24.35 -1.2,0.11 -2.38,0.16 -3.47,0.16 -9.97,0 -15.44,-4.4 -15.79,-12.71 -0.58,-14.07 14.02,-33.47 30.33,-34.83 1.04,-0.08 2.08,-0.11 3.09,-0.11zm-24.62 537.33c8.99,0 17,5.08 23.14,14.65 8.25,12.87 10.17,24.21 5.46,32.79 -4.37,8.06 -14.4,13.03 -26.17,13.03 0,0 0,0 0,0 -10.16,0 -23.12,-4.15 -28.99,-15.87 -4.67,-9.4 -4.07,-20.11 1.7,-29.43 5.68,-9.24 15.44,-15.16 24.86,-15.16zm-46.91 108.06c-5.68,3.93 -13.01,6.2 -20.03,6.2 -6.94,-0.06 -13.5,-2.21 -18.99,-6.29 -7.51,-5.65 -10.6,-12.65 -8.42,-19.23 2.82,-8.44 15.19,-17 36.5,-17 12.02,0 19.24,12.51 19.24,24.56 0,3.8 -3.09,8.2 -8.31,11.75zm-78.55 189.21c-0.63,-13.93 6.07,-29.37 19.75,-30.6 0.88,-0.11 1.75,-0.14 2.63,-0.14 14.02,0 27.57,10.36 30.24,23.09 2.43,11.69 -5.08,22.21 -20.57,29.02 -4.42,1.97 -8.55,2.92 -12.29,2.92 -13.77,0.03 -19.23,-13.09 -19.75,-24.29zm61.15 -45.68c-3.22,-9.04 -1.26,-17.57 5.16,-22.79 8.88,-7.21 16.8,-10.87 23.53,-10.87 9.29,0 13.42,7.19 15.05,11.47 4.34,11.31 1.34,26.34 -6.64,33.55 -4.78,4.29 -9.83,6.47 -15.03,6.47l0 0c-10.82,0 -19.04,-9.23 -22.08,-17.84zm243.01 -218.75c2.16,-7.43 7.73,-15.41 17.02,-15.41 4.62,0 9.65,1.97 14.95,5.82 8.8,6.42 12.18,14.37 9.56,22.51 -3.09,9.45 -13.53,16.83 -23.8,16.83 -3.69,0 -7.11,-0.93 -10.11,-2.82 -8.93,-5.6 -10.22,-17.9 -7.62,-26.94zm77.93 232.33c-2.59,0.87 -5.11,1.34 -7.43,1.34 -11.25,0 -17.32,-10.36 -17.32,-20 0,-9.18 5.25,-19.89 20.08,-19.89 13.42,0 23.06,6.01 24.56,15.3 1.17,7.27 -3.31,17.73 -19.89,23.25zm445.99 611.18c-6.47,0 -12.76,-3.71 -15.19,-8.99 -2.16,-4.72 -1.04,-9.81 3.22,-14.78 1.58,-1.83 3.8,-2.82 6.5,-2.82 6.8,0 15.35,6.15 17.84,12.87 1.5,3.96 0.66,7.35 -2.46,10.05 -2.74,2.4 -6.15,3.66 -9.92,3.66zm28.25 37.6c0.85,-0.41 1.64,-0.6 2.46,-0.6 2.57,0 4.86,1.91 6.31,3.5 4.51,4.89 7.38,13.19 6.83,19.72 -0.43,5.06 -6.67,7.71 -12.65,7.71 -5.49,0 -12.35,-2.3 -13.34,-8.72 -1.66,-10.82 1.26,-16.86 10.38,-21.61zm91.45 -11.4c3.66,-3.66 9.48,-5.65 16.23,-5.65 12.05,0 30.46,6.96 42.76,26.67 4.75,7.62 5.14,15.54 1.04,22.92 -6.37,11.48 -23.09,20.14 -38.85,20.14 -4.07,0 -7.87,-0.58 -11.34,-1.75 -11.15,-3.71 -19.1,-12.46 -21.83,-23.99 -3.12,-13.36 1.34,-27.7 11.99,-38.33zm13.3 142.92c9.37,-12.35 24.67,-20.05 39.92,-20.05 20.25,0 37.19,13.06 46.53,35.76 6.07,14.81 5.88,27.1 -0.52,36.64 -7.32,10.87 -22.79,17.4 -41.45,17.4 -21.15,0 -46.42,-9.02 -51.97,-28.72 -4.1,-14.67 -1.45,-29.24 7.49,-41.04zm66.75 -1009.14c2.51,-7.84 9.56,-16.37 19.02,-16.37 3.41,0 6.94,1.12 10.44,3.33 8.15,5.19 11.34,11.78 9.27,18.99 -2.76,9.37 -14.21,17.65 -24.46,17.65l-0.05 0c-3.47,0 -6.53,-0.96 -9.1,-2.82 -7.08,-5.03 -7.3,-14.04 -5.11,-20.79zm78.31 -198.58c-16.12,2.65 -28.61,-11.61 -33.12,-25.93 -3.63,-11.53 -3.71,-27.9 7.95,-36.07 4.07,-2.84 8.14,-4.26 12.38,-4.26 7.32,0 14.04,4.13 20.57,8.12 3.3,2.02 6.37,3.94 9.53,5.25 4.45,1.89 8.23,12.27 6.69,24.65 -0.71,5.82 -4.51,25 -24.01,28.25zm-1291.27 -469.82c-5.99,2.54 -12.1,-4.53 -12.84,-11.01 -0.27,-2.46 0.11,-5.55 3.44,-6.28 1.15,-0.25 2.24,-0.38 3.3,-0.38 6.31,0 10.09,4.4 10.93,8.5 0.85,4.07 -0.96,7.51 -4.83,9.18zm0.46 -66.12c-0.68,3.85 -3.44,5.79 -8.17,5.79 -8.66,0 -20.19,-6.78 -22.05,-12.92 -0.77,-2.57 0.3,-4.78 3.25,-6.78 4.51,-3 9.26,-4.59 13.75,-4.59 4.4,0 8.14,1.58 10.57,4.48 2.81,3.39 3.71,8.2 2.65,14.02zm2.65 926.95c5.14,-4.32 12.05,-6.64 19.45,-6.64 14.32,0 27.38,8.58 33.31,21.91 4.1,9.24 0.46,18.14 -3.33,23.99 -9.1,13.99 -27.02,23.74 -37.43,23.74 -7.76,0 -16.99,-9.35 -21.45,-21.69 -5.85,-16.07 -2.32,-31.5 9.45,-41.31zm21.09 128.42c6.97,-4.18 13.06,-6.31 18.09,-6.31 7.57,0 10.79,4.89 12.16,9.02 3.2,9.62 -0.63,25.82 -11.26,33.8 -3.11,2.35 -6.61,3.55 -10.33,3.55 -9.1,0 -18.17,-7.24 -20.71,-16.42 -2.51,-8.91 1.89,-17.57 12.05,-23.63zm1534.86 -421.48c-0.63,0 -1.31,-0.03 -1.97,-0.14 -9.64,-1.2 -14.42,-17.32 -13.52,-32.21 0.93,-14.54 7.29,-31.45 22.24,-31.45 1.04,0 2.08,0.08 3.17,0.25 17.19,2.59 17.82,19.51 17.27,26.69 -1.26,17.46 -12.73,36.86 -27.18,36.86zm-122.27 89.34c-0.03,-7.65 1.91,-15.22 5.3,-20.84 2.51,-4.16 7.02,-9.18 14.13,-9.18l0 -1.86c0.33,-0.05 0.58,-0.27 0.96,-0.27 33.83,1.8 28.44,56.97 -1.8,58.74 -0.49,0.05 -0.77,-0.25 -1.28,-0.3l0 -1.78c-12.73,0.03 -17.3,-13.2 -17.3,-24.51zm-54.4 64.35c8.36,0 13.25,6.07 13.83,12.05 0.41,4.89 -2.13,10.68 -10.66,12.21 -0.9,0.14 -1.75,0.22 -2.54,0.22 -7.38,0 -10.71,-6.5 -10.71,-12.6 0,-5.9 3.11,-11.88 10.08,-11.88zm123.94 -210.85c-2.29,17.48 -13.39,39.34 -37.05,43.25 -13.22,2.46 -23.83,-2.76 -31.23,-14.7 -11.94,-19.35 -11.34,-49.26 -5.65,-60.58 2.46,-4.92 10.55,-7.6 22.78,-7.6 13.64,0 30.9,3.52 42.05,8.58 7.3,3.36 11.04,16.12 9.1,31.04zm-170 -68.17c3.33,-8.71 9.65,-13.5 17.71,-13.5 10.19,0 21.29,7.51 28.31,19.15 2.16,3.63 0.96,12.02 -2.87,19.59 -2.35,4.56 -8.93,15.33 -20.47,16.36 -7.65,0.85 -15.13,-3.01 -19.91,-10 -5.99,-8.69 -7.02,-20.52 -2.76,-31.61zm172.46 228.12c0,-8.01 2.13,-16.01 5.9,-22 2.87,-4.51 8,-9.92 16.15,-9.92l0 -1.25c2.13,-0.06 4.04,-0.58 6.45,0.08 24.95,7.13 28.47,51.64 -7.13,58.74 -1.78,0.38 -2.95,-0.35 -4.56,-0.38l0 -1.31c-12.38,0.03 -16.8,-12.9 -16.8,-23.96zm66.07 -192.82c0.24,1.15 -0.08,1.75 -0.44,2.16 -1.42,1.75 -5.63,2.82 -11.31,2.82 -12.98,0 -31.01,-5.47 -34.78,-12.52 -1.04,-1.94 -0.87,-3.85 0.55,-5.93 3.33,-5.03 9.29,-6.07 13.66,-6.07 13.83,-0.03 30.16,9.84 32.32,19.54zm-69.54 -28.01c1.39,1.72 1.83,3.44 1.42,5.3 -0.82,3.83 -6.12,6.12 -14.15,6.12 -11.89,0 -25.57,-4.98 -29.29,-10.66 -1.12,-1.64 -1.28,-3.2 -0.57,-4.87 1.34,-3.11 7.05,-5.05 14.92,-5.05 11.61,0 23.44,3.96 27.68,9.15zm-70.93 -19.13c1.5,1.97 2.02,3.69 1.64,5.14 -0.79,2.76 -7.54,5.68 -18.5,5.68 -10.19,0 -22.05,-2.79 -25.52,-9.07 -1.66,-2.98 -1.12,-6.67 1.56,-10.96 2.21,-3.5 6.94,-4.26 10.49,-4.26 10.52,0.05 25.03,6.47 30.33,13.47zm-68.91 -32.49c1.72,3.03 2.02,5.66 0.82,7.79 -1.09,1.86 -4.21,2.93 -8.58,2.93 -11.56,0 -28.88,-7.27 -31.42,-14.95 -0.38,-1.07 -1.45,-4.29 3.99,-8.36 2.19,-1.64 5.03,-2.48 8.36,-2.48 9.64,0 22.16,7.05 26.83,15.08zm-50.08 -44.51c1.42,5.38 0.38,9.07 -3.03,10.96 -1.26,0.71 -2.82,1.07 -4.59,1.07 -11.45,0 -27.9,-13.66 -29.97,-24.78 -1.09,-6.07 2.16,-10.52 9.65,-13.33 0.66,-0.25 1.42,-0.41 2.27,-0.41 8.61,0.03 22.57,14.37 25.68,26.5zm-23.31 -58.53c-0.58,0.25 -1.2,0.38 -1.86,0.38 -6.61,0 -15.52,-11.23 -15.96,-20 -0.22,-5 2.57,-7.81 8.2,-8.33 0.49,-0.03 0.98,-0.05 1.5,-0.05 8.23,0 12.49,6.37 13.69,12.35 1.23,6.04 -0.27,13.36 -5.57,15.66zm19.26 -66.28c-1.91,6.72 -6.39,10.57 -12.33,10.57 -5.38,0 -10.65,-3.2 -13.09,-7.95 -2.59,-4.97 -1.69,-10.96 2.51,-16.83 2.68,-3.75 7.32,-6.07 12.13,-6.07 3.94,0 7.41,1.58 9.51,4.4 2.79,3.61 3.17,9.12 1.26,15.88zm18.85 -48.03c-3.06,1.66 -6.31,2.51 -9.56,2.51 -8.36,0 -16.15,-5.76 -19.02,-14.04 -3.17,-9.15 0.3,-18.6 9.56,-25.87 3.52,-2.76 7.02,-4.15 10.44,-4.15 8.63,0 14.78,8.88 16.86,17.13 2.05,8.12 1.12,19.37 -8.28,24.43zm26.04 -57.71c-1.8,2.38 -4.02,3.55 -6.77,3.55l-0.03 0c-10.93,0 -28.31,-19.34 -32.6,-36.37 -1.5,-5.99 -1.91,-13.88 4.73,-17.46 2.38,-1.26 4.89,-1.89 7.49,-1.89 9.45,0 20.41,8.77 26.72,21.31 5.88,11.8 6.09,23.36 0.46,30.85zm14.95 -67.11c-2.24,2.02 -5.06,3.03 -8.31,3.03 -9.37,0 -21.01,-8.85 -23.91,-18.22 -1.23,-3.85 -1.42,-9.32 4.59,-13.5 2.4,-1.69 5.16,-2.57 8.17,-2.57 8.8,0 18.83,7.51 22.32,16.72 1.28,3.36 2.62,9.7 -2.87,14.54zm21.2 -62.63c-1.42,4.95 -4.97,7.43 -10.6,7.43 -10.87,0 -25.19,-9.35 -30.05,-19.62 -2.84,-5.96 -2.29,-11.37 1.64,-16.12 3.33,-4.07 7.81,-6.26 12.87,-6.26 7.4,0 15.77,4.67 21.18,11.88 5.27,6.97 7.1,15.22 4.97,22.68zm12.9 -68.14c-1.83,6.09 -9.84,6.75 -13.22,6.75 -8.74,0 -20.25,-4.21 -24.35,-11.28 -2.02,-3.58 -1.86,-7.49 0.52,-11.59 3.8,-6.53 9.4,-7.89 13.39,-7.89 7.27,0 15.69,4.51 20.49,10.95 3.25,4.4 4.37,9.02 3.17,13.06zm5.27 -58.14c-3.03,3.83 -7.84,5.93 -13.39,5.93l-0.06 0c-8.82,0 -17.62,-5.06 -20.35,-11.75 -2.16,-5.22 -0.46,-10.85 4.95,-16.26 3.58,-3.58 7.92,-5.49 12.54,-5.49 7.41,0 14.81,4.78 18.12,11.64 1.53,3.22 3.31,9.53 -1.8,15.93zm8.14 -64.81c-2.49,6.92 -8.36,10.9 -16.12,10.9 -7.76,0 -15.27,-4.02 -18.75,-10.03 -3.09,-5.44 -2.68,-11.89 1.28,-18.66 3.39,-5.76 8.69,-8.91 15,-8.91 6.42,0 12.76,3.33 16.5,8.63 3.63,5.19 4.37,11.56 2.08,18.06zm-1.94 -70.49c0,3.2 -1.61,5.76 -4.73,7.71 -3.09,1.86 -7.32,2.9 -11.97,2.9 -8.88,0 -16.8,-3.63 -20.19,-9.29 -3.06,-5.14 -2.46,-12.02 1.75,-19.86 3.12,-5.85 7.41,-8.91 12.43,-8.91 11.04,-0.03 22.71,14.1 22.71,27.46zm-23.96 -51.01c0.52,1.67 0.3,3.09 -0.66,4.35 -2.13,2.87 -7.98,4.81 -14.51,4.81 -7.81,0 -14.4,-2.68 -16.42,-6.67 -1.99,-4.02 0.66,-9.04 3.31,-12.52 3.28,-4.37 7.27,-6.72 11.42,-6.72 7.08,0 13.88,6.75 16.86,16.75zm-59.34 -36.2c7.79,0 16.15,4.81 16.15,12 0,2.73 -2.93,5.87 -7.76,8.44 -4.97,2.62 -11.23,4.26 -16.37,4.26 -2.59,0 -7.27,-0.46 -9.12,-3.44 -1.56,-2.51 -0.96,-6.61 1.66,-11.86 2.95,-5.96 8.58,-9.4 15.44,-9.4zm-233.61 169.57c3.22,-6.94 11.01,-14.46 20.65,-14.46 0.58,0 1.17,0.03 1.75,0.08 1.91,0.19 3.88,0.93 3.69,5 -0.52,9.56 -13.11,27.08 -21.37,27.05 -1.42,0 -2.65,-0.57 -3.63,-1.75 -3.52,-4.04 -3.91,-9.83 -1.09,-15.93zm-43.22 55.46c2.46,-9.2 10.27,-19.15 18.6,-19.15 1.7,0 3.31,0.41 4.89,1.2 4.04,1.99 5.52,5.57 4.29,10.55 -2.3,9.73 -13.64,20.44 -21.69,20.44 -1.37,0 -2.63,-0.3 -3.77,-0.93 -3.01,-1.72 -3.88,-6.23 -2.32,-12.1zm-42.1 47.84c4.81,-8.2 11.97,-13.25 18.66,-13.25 2.05,0 4.07,0.44 6.07,1.34 1.2,0.57 4.97,2.27 3.55,8.8 -2.73,12.51 -20.03,29.02 -28.11,29.02l-0.06 0c-1.39,0 -2.24,-0.49 -2.87,-1.64 -3.41,-6.09 -2.35,-15.63 2.76,-24.26zm-54.59 64.43c3.75,-9.89 14.04,-20.57 24.21,-20.57 2.02,0 3.91,0.38 5.68,1.2 3.91,1.78 5.3,5.35 4.18,10.57 -2.71,12.32 -17.32,26.89 -27.05,26.89 -1.99,0 -3.66,-0.6 -5.11,-1.86 -5.46,-4.73 -3.17,-12.92 -1.91,-16.23zm-42.51 50.63c4.53,-8.47 13.42,-17.57 22.29,-17.57 2.21,0 4.32,0.57 6.26,1.74 3.2,1.94 4.21,5.25 2.92,9.86 -3.09,11.17 -17.9,24.43 -27.35,24.43 -2.87,0 -5,-1.15 -6.53,-3.47 -1.89,-2.84 -0.93,-8.72 2.4,-15zm-51.34 50.14c2.87,-10.08 16.61,-23.55 26.72,-23.55 1.91,0 3.58,0.52 4.95,1.53 4.95,3.69 3.25,10.68 2.3,13.53 -3.09,9.34 -12.82,19.43 -23.12,19.43 -3.06,0 -6.04,-0.9 -8.83,-2.63 -2.48,-1.53 -3.17,-4.34 -2.02,-8.31zm-39.18 36.72c3.96,-8.12 12.16,-14.02 19.48,-14.02 2.51,0 4.87,0.71 6.94,2.11 4.97,3.3 3.88,9.81 2.81,13.42 -2.84,9.43 -12.18,19.92 -20.44,19.92 -3.03,0 -5.74,-1.48 -7.98,-4.4 -4.89,-6.26 -2.62,-13.34 -0.82,-17.02zm-47.54 41.83c4.15,-6.72 10.82,-10.77 17.84,-10.77 3.55,0 7.24,1.01 10.9,2.95 4.56,2.46 6.26,6.26 5.03,11.2 -2.54,10.17 -15.88,20.9 -25.9,20.9 -4.51,0 -7.89,-2.16 -10.02,-6.48 -2.43,-4.75 -1.58,-11.8 2.16,-17.81zm-44.1 13.14c4.97,0 16.61,1.31 17.46,13.42 0.3,4.34 -1.01,8.09 -3.88,11.17 -4.15,4.45 -11.31,7.13 -19.13,7.13 -10.36,0 -20.85,-4.89 -20.85,-15.82 0,-8.83 14.43,-15.9 26.4,-15.9zm-54.37 9.43c1.88,2.73 2.27,5.46 1.15,8.39 -2.82,7.27 -11.09,11.64 -22.19,11.64 -17.68,0 -35.99,-10.74 -35.99,-28.66 0,-4.64 8.06,-6.28 15.63,-6.28 15.03,-0.03 35.27,5.98 41.4,14.92zm-83.53 -25.14c0.63,2.16 0.11,3.66 -1.75,4.89 -3.44,2.32 -9.29,3.58 -16.45,3.58 -13.99,0 -31.64,-5.17 -35.82,-13.53 -1.56,-3.17 -1.01,-6.48 1.75,-10.17 3.03,-4.02 7.79,-6.07 14.13,-6.07 15.3,0.03 35.49,12.51 38.14,21.28zm-76.91 -37.24c0.71,2.46 1.36,6.94 -2.21,9.18 -2.51,1.58 -6.61,2.43 -11.61,2.43 -12.71,0 -29.62,-5.71 -32.4,-13.09 -1.09,-2.84 0.22,-5.88 3.83,-9.07 5.82,-5.08 11.91,-7.65 18.17,-7.65 11.72,0 21.72,9.45 24.24,18.2zm-96.64 -55.25c13.58,0 28.96,14.29 33.58,24.18 1.67,3.5 1.89,6.31 0.69,7.76 -1.2,1.47 -4.29,2.32 -8.39,2.32 -13.66,0 -34.54,-8.44 -39.37,-18.25 -1.66,-3.39 -1.26,-6.61 1.26,-9.86 3.14,-4.1 7.24,-6.15 12.24,-6.15zm-34.75 -17.74c2.57,5.55 1.64,11.17 -2.65,16.28 -3.83,4.51 -8.91,6.8 -15.14,6.8 -12.4,0 -27.32,-9.67 -31.89,-20.68 -1.53,-3.69 -2.43,-9.01 2.08,-13.52 5.08,-5.08 11.78,-6.15 16.48,-6.15 12.73,0 26.69,7.76 31.12,17.27zm-72.92 -35.44c2.32,4.95 1.86,9.45 -1.39,13.44 -3.91,4.75 -9.48,5.74 -13.47,5.74 -11.83,0 -26.23,-8.52 -30.82,-18.25 -2.32,-4.92 -1.89,-9.37 1.28,-13.28 3.94,-4.78 9.59,-5.8 13.61,-5.8 11.83,0.03 26.2,8.5 30.79,18.14zm-66.23 -30.9c1.37,2.93 1.28,5.25 -0.14,6.92 -2.05,2.4 -7.21,3.77 -14.21,3.77l0 0c-15.14,0 -34.64,-6.34 -38.41,-15.46 -1.56,-3.74 -0.14,-7.81 4.12,-12.1 3.09,-3.06 7.27,-4.65 12.43,-4.65 14.15,0 31.78,11.83 36.2,21.53zm-67.95 -39.48c2.87,3.69 4.24,6.97 3.75,9.01 -0.33,1.28 -3.12,2.82 -9.84,2.82 -17.95,0 -52.32,-10.76 -57.73,-23.03 -1.26,-2.84 -0.66,-5.41 1.78,-8.09 3.47,-3.83 8.44,-5.74 14.73,-5.74 16.34,-0.03 38.06,13.2 47.32,25.03zm-119.15 -55.74c11.75,0 25.38,6.29 32.46,14.92 2.84,3.5 5.93,9.01 4.56,15.68 -1.72,8.42 -10.76,9.67 -15.98,9.67 0,0 0,0 -0.03,0 -13.91,0 -30.14,-7.92 -36.12,-17.63 -3.03,-4.89 -3.3,-9.81 -0.87,-14.7 3.41,-6.94 11.48,-7.95 15.98,-7.95zm-118.77 -7.62c4.02,0 9.65,1.2 13.64,6.91 1.75,2.49 1.91,5 0.49,7.73 -3.61,6.94 -17.27,13.5 -28.11,13.5 -5.14,0 -11.23,-1.42 -11.23,-8.2 0,-9.51 13.22,-19.95 25.22,-19.95zm-39.1 141.37c6.31,-16.45 16.58,-24.43 31.45,-24.43 6.2,0 13.25,1.45 20.98,4.29 18.2,6.69 18.77,24.24 18.17,31.45 -1.28,15.08 -11.09,32.71 -26.75,35.63 -13.25,2.63 -27.57,-4.97 -37.16,-18.93 -6.8,-9.92 -9.45,-20.93 -6.69,-28.01zm65.3 113.85c-8.69,-15.22 -11.04,-28.22 -6.59,-36.59 3.63,-6.88 11.89,-10.85 24.48,-11.83 0.85,-0.05 1.66,-0.11 2.43,-0.11 16.64,0 19.89,14.92 23.96,33.83 0.52,2.4 1.07,4.89 1.64,7.38 1.04,4.56 0.11,8.8 -2.71,12.35 -4.05,5.08 -11.56,8.23 -19.64,8.23 -10.19,0 -18.8,-4.83 -23.58,-13.25zm48.09 45.63c0.08,-7.79 4.54,-14.37 11.89,-17.65 2.54,-1.15 5.11,-1.72 7.59,-1.72 8.91,0 17.76,7.3 27.1,22.27 4.18,6.72 4.78,16.47 1.34,22.68 -2.38,4.26 -6.26,6.42 -11.53,6.42l0 0c-3.96,0 -8.58,-1.23 -13.74,-3.69 -14.31,-6.69 -22.76,-17.29 -22.65,-28.3zm60.06 73.8c-0.77,-3.91 -1.53,-13.42 8.33,-17.54 1.53,-0.66 3.31,-0.98 5.19,-0.98 13.44,0 32.1,16.2 33.3,28.91 0.6,6.53 -3.77,10.76 -13,12.51 -1.83,0.35 -3.69,0.55 -5.46,0.55 -14.84,-0.06 -26.07,-11.94 -28.36,-23.44zm57.16 51.69c-1.78,-4.02 -2.9,-9.89 1.78,-15.03 2.38,-2.63 5.27,-3.96 8.58,-3.96 11.69,0 26.4,15.79 29.29,28 1.17,5.03 0.16,8.39 -3.06,9.97 -1.89,0.96 -4.07,1.42 -6.56,1.42l0 0c-10.98,0.03 -25.3,-9.73 -30.03,-20.41zm54.4 48.09c-2.73,-5.68 -2.76,-10.9 -0.03,-14.26 2.57,-3.22 6.15,-4.83 10.66,-4.83 9.48,0 20.96,7.62 24.56,16.34 1.53,3.66 2.27,9.1 -2.79,14.15 -3.06,3.06 -6.58,4.59 -10.55,4.59 -9.18,0 -18.14,-8.25 -21.86,-15.99zm43.39 46.37c-2.84,-5.41 -2.59,-10.57 0.71,-15.38 2.87,-4.13 6.75,-6.23 11.5,-6.23 11.2,0 24.12,11.06 29.18,21.39 1.66,3.41 3.94,9.81 0.41,14.34 -2.67,3.44 -7.13,4.18 -10.38,4.18 -11.61,0.03 -26.31,-8.55 -31.42,-18.31zm50.91 50.85c-2.93,-7.05 -2,-13.72 2.54,-18.28 3.06,-3.06 6.34,-4.59 9.76,-4.59 8.36,0 15.66,8.85 18.25,17.13 2.46,7.81 0.96,14.54 -4.04,18.01 -2.35,1.66 -4.95,2.48 -7.68,2.48 -7.38,0.03 -15.27,-6.2 -18.83,-14.75zm17.98 57.41c-1.64,-6.48 -2.81,-11.17 1.91,-20.6 1.64,-3.28 6.15,-5.3 11.78,-5.3 8.63,0 18.69,4.81 21.64,15.6 1.23,4.56 -0.14,9.95 -3.85,14.76 -4.51,5.93 -11.61,9.89 -17.65,9.89 -6.69,0 -11.4,-4.59 -13.55,-13.25l-0.27 -1.09zm-12.68 40.66c3.17,-4.59 7.54,-7.35 11.72,-7.35 2.32,0 4.59,0.85 6.8,2.46 2.62,1.97 3.31,4.92 2.02,8.77 -2.6,7.84 -12.98,16.8 -19.43,16.8 -2.1,0 -3.47,-1.01 -4.26,-3.09 -1.94,-5.16 -0.71,-12.05 3.14,-17.59zm-46.09 45.52c3.28,-7.84 10.38,-16.28 20.57,-16.28 3.25,0 6.67,0.87 10.08,2.59 1.2,0.58 4.75,2.38 3.14,9.24 -2.84,12.08 -19.13,28.14 -28.5,28.14 -1.72,0 -3.12,-0.55 -4.21,-1.64 -4.26,-4.23 -4.7,-13.33 -1.09,-22.05zm-63.31 46.72c6.07,-11.29 19.56,-19.51 32.19,-19.51 7.13,0 13.52,2.65 18.52,7.59 5.88,5.9 4.92,11.61 3.3,21.1l-0.33 1.99c-1.04,6.12 -18.47,21.75 -34.83,21.75 -7.62,0 -13.74,-3.41 -18.25,-10.13 -4.59,-6.8 -4.78,-14.89 -0.6,-22.79zm-62.68 52.41c3.2,-9.35 14.45,-19.75 25.49,-19.75 5.65,0 10.57,2.65 14.7,7.81 1.23,1.56 0.14,4.37 -0.6,5.93 -4.43,9.18 -18.61,20.27 -29.59,20.27 -3.01,0 -5.6,-0.87 -7.76,-2.51 -4.32,-3.36 -3.25,-8.77 -2.24,-11.75zm-66.8 47.38c4.21,-10.19 16.8,-20.74 30.54,-20.74 6.34,0 12.24,2.24 17.6,6.66 0.38,0.33 1.36,1.18 0.38,3.88 -3.63,10.03 -25.98,25.96 -39.75,25.96 -3.28,0 -5.85,-0.88 -7.62,-2.68 -4.02,-4.05 -2.43,-9.92 -1.15,-13.09zm-60.03 36.77c3.2,-9.37 14.42,-19.75 25.49,-19.75 5.63,0 10.58,2.63 14.7,7.79 1.23,1.56 0.13,4.4 -0.6,5.93 -4.43,9.21 -18.61,20.3 -29.59,20.3 -3.01,0 -5.63,-0.88 -7.76,-2.51 -4.35,-3.39 -3.28,-8.8 -2.24,-11.75zm-60.47 38.66c4.45,-8.39 16.81,-17.35 28.09,-17.35 6.45,0 11.61,2.82 15.38,8.39 0.35,0.52 1.39,2.08 -0.22,5.14 -4.48,8.47 -22.65,17.71 -34.7,17.71 -4.51,0 -7.57,-1.2 -9.24,-3.66 -2.19,-3.25 -0.85,-7.35 0.68,-10.22zm-76.61 48.8c6.58,-12.92 25.71,-27.35 41.45,-27.35 5.68,0 10.22,2 13.47,5.9 0.85,0.98 0.6,3.2 -0.74,6.07 -5.88,12.54 -31.07,34.21 -46.48,34.21 -3.66,0 -6.31,-1.2 -8.17,-3.77 -3.52,-4.81 -1.69,-10.85 0.46,-15.05zm-79.78 45.05c8.44,-10.49 22.92,-17.82 35.27,-17.82 4.95,0 11.86,1.2 16.61,6.92 2.68,3.17 2.95,6.88 0.88,11.31 -6.83,14.62 -35.03,29.42 -50.3,29.42 -5.3,0 -8.39,-1.75 -9.15,-5.16 -2.35,-10.57 2.35,-19.26 6.69,-24.67zm-88.12 55.25c9.62,-12.05 28.58,-21.86 42.33,-21.86 9.07,0 14.51,4.07 16.2,12.21 1.83,8.74 -2.02,15.85 -5.63,20.22 -8.14,10.03 -23.82,17.32 -37.32,17.32 -6.5,0 -17.84,-1.72 -20.55,-13.58 -1.2,-5.16 2.08,-10.66 4.97,-14.31zm-21.26 90.46l1.39 1.64c5.33,-4.64 12.6,-3.09 17.4,0.38 5.63,4.07 10.55,12.82 5.93,23.85 -2.76,6.64 -7.43,9.32 -13.28,7.35 -8.44,-2.79 -15.79,-13.96 -12.92,-25.57l-2.08 -0.52 3.55 -7.13zm305.6 135.06c-2.51,0.71 -5.05,1.09 -7.62,1.09 -12.6,0 -25.05,-9.4 -29.56,-22.32 -4.4,-12.57 -0.52,-24.86 10.66,-33.79l1.89 -1.5c9.4,-7.54 15.11,-12.13 21.58,-12.13 4.37,0 9.54,2.02 16.75,6.61 8.33,5.3 12.65,17.87 10.77,31.29 -2.16,15.41 -11.31,26.88 -24.46,30.77zm61.5 -13.83c-8.58,2.16 -15.66,-3.22 -18.22,-13.74 -2.87,-11.72 0.57,-27.6 12.65,-33.91 3.99,-2.08 7.95,-3.11 11.8,-3.11 12.05,0 19.59,10 20.79,19.89 1.39,11.34 -4.97,25.38 -27.02,30.88zm63.39 -26.34c-10.05,0 -17.38,-6.67 -21.17,-19.37 -3.99,-13.39 -3.63,-23.82 1.15,-30.24 4.56,-6.12 12.18,-7.41 17.76,-7.41 12.98,0 28.2,6.94 36.15,16.5 4.62,5.52 2.29,12.73 0.52,16.55 -5.46,11.56 -20.57,23.96 -34.4,23.96zm65.17 -25.98c-7.38,0 -13.09,-4.56 -16.53,-13.14 -3.17,-7.98 -2.65,-15.74 1.5,-21.86 4.26,-6.26 11.97,-10.19 20.05,-10.19 8.96,0 17.05,4.51 22.76,12.68 3.36,4.81 1.04,10.9 -0.63,14.12 -4.59,8.83 -16.28,18.39 -27.16,18.39zm90.22 -35.03c-5.96,6.88 -15.55,11.34 -24.4,11.34l-0.03 0c-9.23,0 -15.33,-4.72 -16.31,-12.51 -0.98,-7.76 2.4,-16.61 9.21,-24.4 7.19,-8.09 16.75,-13.34 24.37,-13.34 7.62,0 12.4,5.19 13.8,15.11 1.64,11.45 -2.73,19.24 -6.64,23.8zm82.13 -32.98c-6.45,8.8 -20.99,15.25 -34.54,15.25 -4.62,0 -19.83,-1.01 -20.68,-14.04 -0.41,-6.12 2.49,-12.81 8.12,-18.8 8.06,-8.58 20.33,-14.37 30.58,-14.37 6.8,0 15.71,2.49 19.45,14.37 1.99,6.28 1.01,12.21 -2.92,17.59zm80.03 -31.01c-4.4,12.81 -15.24,20.44 -29.02,20.44 -9.34,0 -17.98,-3.71 -22.02,-9.48 -2.62,-3.72 -3.09,-7.92 -1.45,-12.49 4.7,-12.9 21.72,-20.6 35.49,-20.6 7.59,0 13.39,2.24 16.34,6.31 2.73,3.85 2.95,9.15 0.66,15.82zm33.96 -8.88c-11.06,0 -18.06,-6.28 -19.21,-17.27 -0.66,-6.04 1.12,-11.39 5.27,-16.04 6.28,-6.96 17.68,-11.48 29.1,-11.48 7.98,0 14.46,2.3 17.79,6.26 2.29,2.71 3.06,6.23 2.32,10.38 -2.95,16.83 -20.63,28.14 -35.27,28.14zm114.76 -27.46c-5.14,3.09 -12.24,4.75 -19.95,4.75 -0.03,0 -0.03,0 -0.03,0 -13.55,0 -25.88,-5.16 -32.08,-13.47 -1.42,-1.86 -0.87,-8.63 2.93,-17.46 4.43,-10.22 12.51,-20.99 20.52,-21.86 0.74,-0.08 1.5,-0.14 2.27,-0.14 13.74,0 34.53,14.13 34.53,35.38 0,6.58 -4.45,10.57 -8.2,12.79zm38.5 5.49c-5.55,-8.42 -6.12,-17.84 -1.72,-28.09 1.72,-3.96 19.54,-16.28 34.81,-16.28 3.63,0 6.8,0.71 9.37,2.19 9.65,5.33 21.01,19.32 23.34,33.42 1.42,8.61 -0.63,16.04 -6.07,22.05 -3.86,4.21 -10.6,6.56 -18.96,6.56 -13.8,-0.03 -32.19,-6.83 -40.77,-19.83zm67.84 61.56c-3.25,-8.99 1.06,-19.05 12.16,-28.34 1.15,-0.96 2.71,-1.47 4.56,-1.47 5.82,0 14.48,5.11 18.91,13.52 2.73,5.19 4.67,13.34 -1.67,22.49 -3.28,4.7 -8.22,7.3 -13.99,7.3l-0.03 0c-8.72,0 -17.11,-5.65 -19.95,-13.5zm32.38 67.57c-4.26,-12.49 -0.71,-24.64 9.56,-32.65 1.23,-0.96 2.57,-1.45 4.07,-1.45 8.52,0 20.36,14.48 23.82,29.26 1.48,6.18 2.49,17.24 -7.05,22 -2.62,1.28 -5.3,1.94 -8,1.94l0 0c-9.32,0 -18.55,-7.84 -22.4,-19.1zm27.16 77.79c-5.44,-12.21 -4.75,-23.82 1.78,-31.04 2.1,-2.29 4.4,-3.44 6.91,-3.44 7.32,0 16.7,10.03 21.8,23.33 3.8,9.84 5.41,22.57 -1.45,28.74 -2.02,1.83 -4.32,2.76 -6.83,2.76 -7.65,0 -16.99,-8.53 -22.21,-20.36zm17.95 59.78c-0.96,-6.83 -0.41,-18.88 13.99,-23.01 0.41,-0.11 0.88,-0.16 1.37,-0.16 5.68,0 15.3,8.31 19.62,19.4 2.38,6.15 4.89,17.79 -5.17,26.99 -2.43,2.27 -5.11,3.39 -7.92,3.39 -9.37,0.03 -19.98,-12.92 -21.89,-26.61zm25.98 82.27c-2.05,-5.82 -5.44,-20.41 7.02,-30.38 1.42,-1.12 2.84,-1.7 4.43,-1.7 7.68,0 17.84,14.62 21.31,30.69 2.51,11.61 0.71,20.03 -4.81,22.51 -9.32,4.34 -22.82,-6.45 -27.95,-21.12zm29.43 78.03c-3.01,-7.27 -6.04,-21.53 7.57,-35.14 3.52,-3.5 7.41,-5.28 11.59,-5.28 10.25,0 22,11.01 27.92,26.21 5.38,13.77 4.15,26.12 -3.28,32.95 -3.52,3.25 -7.78,4.95 -12.65,4.95 -12.18,-0.03 -25.57,-10.22 -31.15,-23.69zm42.71 52.84c4.67,-9.37 14.29,-14.75 26.37,-14.75 12.24,0 24.04,5.87 29.37,14.64 4.62,7.57 4.34,16.81 -0.79,26.67 -6.53,12.51 -17.49,19.67 -30.03,19.67 -10.58,0 -20.38,-5.22 -25.6,-13.66 -5.55,-9.01 -5.33,-20.57 0.69,-32.57zm43 105.27c-6.15,-10.82 -6.15,-22.54 0.08,-33.01 6.61,-11.2 15.57,-17.08 25.85,-17.08 13.17,0 27.9,10.14 35.82,24.7 7.02,12.95 7.22,26.2 0.58,36.42 -6.72,10.3 -16.37,12.49 -23.31,12.49 -14.84,0 -31.23,-9.89 -39.02,-23.53zm64.05 75.22c-1.26,-12.05 0.96,-21.56 6.34,-27.54 3.93,-4.37 9.43,-6.67 15.87,-6.67 14.18,0 33.66,11.56 43.06,36.94 3.44,9.21 3.14,17.08 -0.77,22.73 -4.13,5.93 -12.24,9.37 -22.19,9.37 -18.77,-0.03 -40,-12.21 -42.32,-34.83zm89.76 86.5c-7.6,-11.94 -8.53,-25.46 -2.6,-38.06 3.96,-8.39 11.01,-12.65 21.07,-12.65 22.19,0 52.71,21.61 59.32,42.02 3.09,9.51 0.58,17.27 -7.38,23.08 -8.2,5.93 -17.73,9.04 -27.6,9.04 -16.94,0 -33.77,-9.24 -42.81,-23.44zm240.38 -62.62c-0.58,0.08 -1.15,0.08 -1.72,0.08 -7.51,0 -11.61,-4.89 -12.24,-9.48 -0.66,-4.64 1.97,-10.52 11.2,-13.14 0.55,-0.11 1.04,-0.22 1.53,-0.22 5,0 9.02,6.77 9.32,12.79 0.11,2.73 -0.38,9.15 -8.08,9.97zm1.69 -53.88c-14.26,1.91 -23.82,-11.48 -24.7,-23.74 -0.79,-10.96 5.33,-18.5 16.81,-20.11 6.28,0 17.46,16.26 18.33,29.73 0.52,8.36 -2.98,13.11 -10.44,14.13zm-10.6 -90.88c2.21,5.63 3.28,13.72 -3.85,20.22 -2.6,2.38 -5.3,3.55 -7.98,3.55 -6.09,0 -12.38,-6.26 -15.63,-15.52 -2.95,-8.53 -3.44,-20.77 4.97,-27.49 0.46,-0.38 1.04,-0.57 1.83,-0.57 5.82,0 16.53,9.15 20.66,19.81zm-31.5 -89.1c5.19,13.31 4.59,24.78 -1.69,30.58 -1.78,1.7 -3.75,2.57 -5.85,2.57 -6.61,0 -14.65,-8.99 -18.58,-20.93 -3.66,-11.09 -3.96,-25.66 6.26,-33.25 0.54,-0.43 1.12,-0.63 1.83,-0.63 4.59,0 12.92,8.72 18.03,21.67zm-23.41 -76.42c2.1,6.58 6.12,22.68 -3.09,29.37 -1.5,1.04 -3.01,1.61 -4.72,1.61 -9.43,0 -21.45,-16.91 -24.29,-34.15 -1.31,-7.87 -1.5,-21.72 11.83,-26.12 4.7,0 15.19,13.83 20.28,29.29zm-25.71 -93.25c5.52,15.74 6.64,35.28 -1.94,42.1 -1.23,0.96 -2.43,1.48 -3.69,1.48 -6.83,-0.06 -15.33,-13.74 -18.88,-30.55 -2.73,-12.65 -2.49,-28.96 7,-33.17 0.62,-0.3 1.25,-0.44 1.88,-0.44 5.03,0 11.34,8.28 15.63,20.57zm-19.34 -96.01c4.67,14.34 4.1,33.58 -6.12,41.04 -1.34,0.96 -2.68,1.47 -3.96,1.47 -6.88,0 -14.54,-14.56 -16.64,-31.75 -1.42,-11.72 -0.19,-26.15 8.14,-28.25 0.82,-0.22 1.66,-0.33 2.46,-0.33 6.34,0 12.51,6.83 16.12,17.81zm-18.66 -42.16c-1.23,0.96 -2.43,1.47 -3.69,1.47 -6.86,-0.05 -15.33,-13.74 -18.91,-30.54 -2.71,-12.65 -2.46,-28.96 7.02,-33.17 0.63,-0.3 1.26,-0.44 1.89,-0.44 5.06,0 11.34,8.28 15.63,20.57 5.52,15.77 6.67,35.27 -1.94,42.1zm-7.57 -88.11c-2.84,4.34 -6.78,6.56 -11.64,6.56 -10,0 -21.31,-9.02 -27.6,-17.38 -3.03,-4.05 -2.79,-10.87 0.66,-17.84 3.6,-7.16 11.5,-15.44 22.05,-15.44 5.11,0 10.22,2 15.19,5.99 8.44,6.69 10.98,23.63 1.34,38.12zm26.39 -79.35c-3.94,10 -12.35,17.57 -21.39,19.24 -0.96,0.16 -1.91,0.24 -2.87,0.24 -9.67,0 -21.61,-7.89 -29.13,-19.15 -6.17,-9.26 -7.92,-18.8 -4.83,-26.25 4.15,-10.03 13.06,-16.07 23.69,-16.07 11.69,0 23.47,7.16 33.17,20.08 4.04,5.44 4.61,13.63 1.36,21.91zm34.34 -55.03c-2.54,7.73 -9.75,12.16 -19.7,12.16 -13.03,0 -27.21,-7.29 -35.3,-18.11 -6.8,-9.07 -8.04,-21.83 -3.03,-31.75 4.23,-8.55 12.32,-13.45 22.16,-13.45 3.86,0 8.01,0.74 12.35,2.21 7.4,2.46 15.05,9.65 19.92,18.8 5.44,10.14 6.72,20.88 3.6,30.14zm45.66 -25.93c-2.95,0 -5.41,-0.63 -7.3,-1.89 -9.62,-6.37 -15.08,-13.72 -16.2,-21.69 -1.26,-8.58 2.6,-18.2 11.31,-28.55 7.41,-8.74 16.37,-13.58 25.17,-13.58 13.64,0 25.17,11.17 31.67,30.66 1.25,3.77 -1.18,8.31 -3.47,11.45 -8.72,12.13 -28.72,23.61 -41.17,23.61zm100.05 -31.86c-4.34,4.72 -10.66,7.65 -16.45,7.65 -8.72,0 -14.73,-6.42 -16.5,-17.63 -1.17,-7.4 0.16,-13.58 3.94,-17.95 3.33,-3.94 8.53,-6.18 14.21,-6.18 9.1,0 19.34,6.07 20.36,19.26 0.41,5.27 -1.56,10.52 -5.55,14.84zm-8.39 -228.67c-0.49,0.05 -0.79,-0.24 -1.25,-0.24l0 -1.83c-7.98,0 -13.14,-4.81 -16.12,-8.8 -3.93,-5.38 -6.17,-12.52 -6.15,-19.62 0,-11.8 6.37,-24.4 24.35,-24.4l0 -1.72c0.98,0 1.66,-0.41 2.73,-0.33 28.5,1.78 26.67,55.19 -3.55,56.94zm58.5 226.64c-12.6,0 -25.76,-3.94 -26.53,-11.42 -1.83,-18.14 9.51,-34.04 28.83,-40.46 2.27,-0.74 4.37,-1.12 6.47,-1.12 4.97,0 9.48,2.24 12.98,6.53 6.45,7.89 8.93,21.58 6.26,34.83 -1.56,7.65 -15.25,11.64 -28.01,11.64zm87.43 9.75c-15.87,0 -31.78,-8.42 -36.23,-19.1 -7.79,-18.77 9.97,-28.53 25.63,-37.13l1.97 -1.09c1.94,-1.09 4.21,-1.64 6.72,-1.64 7.73,0 16.39,5.11 22,13.03 3.8,5.38 9.35,16.78 3.85,32.3 -3.11,8.66 -11.86,13.63 -23.93,13.63zm70.25 1.64c-12.08,0 -25.17,-3.63 -26.72,-10.6 -1.78,-8 2.95,-21.37 11.31,-31.75 6.97,-8.72 15.11,-13.74 22.24,-13.74 7.73,0 13.19,2.13 16.58,6.42 5.54,7.16 5.84,20.88 0.87,40.82 -1.2,5.16 -11.48,8.85 -24.29,8.85zm67.57 5.57c-4.75,0 -16.2,-0.9 -19.56,-9.34 -6.78,-16.78 7.13,-33.58 22.3,-43.74 2.35,-1.58 4.81,-2.38 7.32,-2.38 4.42,0 8.74,2.51 12.13,7.02 6.72,8.82 8.22,22.87 4.04,37.51 -1.61,5.71 -14.13,10.93 -26.23,10.93zm81.18 5.14c-14.95,0 -29.02,-6.23 -31.31,-13.91 -5.41,-18.06 8.85,-32.27 25.44,-38.31 3.79,-1.36 7.4,-2.08 10.57,-2.08 4.83,0 8.77,1.64 11.8,4.89 5.79,6.26 8.14,18.71 6.8,35.96 -0.74,9.92 -12.52,13.45 -23.31,13.45zm66.15 -3.33c-11.01,0 -22.81,-3.77 -24.37,-12.05 -1.64,-9.1 0.74,-18.77 6.53,-26.48 5.17,-6.88 12.49,-11.25 20.03,-11.99 0.82,-0.08 1.7,-0.14 2.46,-0.14 5.74,0 10.74,2.16 14.48,6.26 5.99,6.53 8.63,17.43 7.41,30.71 -0.71,8.96 -13.94,13.69 -26.53,13.69zm32.49 -209.79l0 -1.17c-10.52,0 -17.87,-19.34 -17.87,-36.72 0,-13.44 4.34,-27.84 16.47,-27.84l0 -1.45c0.9,-0.03 1.53,-0.6 2.54,-0.52 26.72,3.55 30.25,57.02 3.55,67.7 -1.75,0.69 -3.17,0 -4.7,0zm74.81 206.24c-7.19,3.06 -16.8,4.83 -26.34,4.83 -14.48,0 -25.52,-3.94 -29.46,-10.52 -2.59,-4.34 -14.21,-26.94 13.64,-47.08 6.58,-4.75 13.14,-7.19 19.42,-7.19 20.14,0 34.16,25.41 34.16,48.2 0,5.93 -7.13,9.92 -11.42,11.75zm129.67 -24.48c-5.74,8 -34.51,14.02 -56.34,14.02 -7.76,0 -13.64,-0.79 -16.5,-2.24 -5.6,-2.82 -12.02,-8.77 -13.39,-17.16 -1.61,-9.75 3.66,-20.82 15.69,-32.84 6.09,-6.07 13.17,-9.12 21.15,-9.12 19.92,0 41.89,19.26 50.06,43.88 0.44,1.18 0.22,2.3 -0.66,3.47zm93.09 -49.04c-6.5,16.86 -38.5,36.99 -48.06,36.99 -0.22,0 -0.43,0 -0.63,-0.03 -6.91,-1.01 -24.81,-7.89 -32.92,-21.88 -5.14,-8.88 -5.44,-19.1 -0.96,-30.35 5.68,-14.26 15.96,-21.8 29.73,-21.8 15.08,0 33.47,8.85 50.55,24.35 3.55,3.3 4.37,7.46 2.3,12.73z"/>
    <path class="fil2" d="M3191.63 182.29c-194.5,32.91 -344.79,193.38 -344.79,380.6l0 337.4 0 919.61 79.57 0 0 -578.1 119.35 63.78 0 514.33 79.56 0 0 -473.18 271.86 146.07 0 327.11 79.57 0 0 -370.31c-117.14,-63.78 -234.28,-123.44 -351.42,-187.22l0 -127.55c117.14,63.78 234.28,123.44 351.42,187.21l0 -759.14c0,-106.98 -97.25,-201.61 -216.6,-201.61 -117.14,0 -214.39,94.64 -214.39,201.61l0 656.28 -119.35 -63.78 0 -592.51c0,-170.76 150.29,-312.71 333.74,-312.71 183.45,0 335.95,141.95 335.95,312.71l0 1257.01 79.57 0 0 -1257.01c0,-240.7 -236.49,-419.69 -484.03,-380.6zm-66.31 380.6c0,-72 61.89,-127.55 134.82,-127.55 77.36,0 137.03,55.55 137.03,127.55l0 629.54 -271.86 -144.01 0 -485.52zm1449.9 -386.77c-11.05,28.8 -15.47,53.49 -218.81,695.37l-59.68 -205.73c134.82,-456.72 141.45,-473.18 148.08,-489.64l-79.56 0 -8.84 30.86 -97.25 331.23 -92.83 -308.6 -15.47 -53.49 -90.62 0 159.14 489.64 -59.68 205.73 -185.66 -594.56 -30.94 -100.81 -77.35 0 35.36 119.32 221.02 703.6 4.42 16.46 0 98.75 0 705.66 75.15 0 0 -571.93 0 -242.76 0 -14.41 57.47 -183.1 55.25 183.1 0 14.41 0 158.41 0 656.28 75.15 0 0 -623.36 0 -181.04c238.7,-773.55 254.17,-806.46 263.01,-839.38l-77.35 0zm1001.22 0l-88.41 0 -309.43 645.99 -46.42 -102.87 0 -72 223.23 -471.13 -88.41 0 -134.82 288.02 0 -288.02 -81.77 0 0 557.53 512.77 1086.26 86.2 0 -426.57 -905.22 353.63 -738.57zm-645.38 0l-79.57 0 0 1643.79 79.57 0 0 -874.35 119.35 255.11 0 619.25 81.77 0 0 -448.49 209.97 448.49 88.41 0 -499.51 -1061.57 0 -582.21zm1748.28 228.36c-15.47,-26.74 -41.99,-55.55 -81.78,-91.55 -33.15,-27.09 -64.1,-52.46 -101.67,-70.97 -72.94,-41.15 -161.35,-65.84 -249.75,-65.84 -44.2,0 -86.2,6.18 -128.19,14.4 -41.99,10.29 -81.78,24.69 -123.77,47.32 -79.57,43.89 -139.24,104.58 -181.24,183.1 -41.99,76.12 -55.26,164.58 -39.78,248.93 15.47,88.46 57.47,164.58 117.14,222.19 95.04,96.69 225.44,146.07 349.21,213.96 50.83,26.75 95.04,55.55 132.61,86.41 35.36,30.86 57.47,59.66 68.52,88.46 11.05,30.86 13.26,67.89 4.42,111.1 -6.63,37.03 -22.1,69.95 -46.41,96.69 -46.41,55.55 -125.98,78.18 -212.18,63.78 -86.2,-14.4 -165.77,-63.78 -234.28,-135.78l-59.68 49.38c77.36,80.23 174.61,144.01 280.69,160.47 53.05,8.23 106.09,4.11 159.14,-10.28 53.05,-16.46 95.04,-43.21 128.19,-80.24 33.15,-37.03 55.26,-80.23 64.1,-131.66 8.84,-55.55 6.63,-102.87 -8.84,-146.07 -33.15,-90.52 -132.61,-158.41 -236.49,-216.02 -81.77,-47.32 -167.98,-84.35 -247.54,-133.72 -28.74,-16.46 -55.26,-39.09 -81.78,-65.83 -53.05,-51.44 -86.2,-111.1 -99.46,-183.1 -11.05,-72.01 0,-141.95 33.15,-205.73 33.15,-63.78 83.99,-115.55 150.3,-151.21 33.15,-16.8 68.52,-31.55 103.88,-40.12 35.36,-8.23 70.73,-12.34 108.3,-12.34 75.14,0 145.87,18.86 209.97,56.58 28.73,14.74 57.47,35.66 86.2,60.69l37.57 37.03c11.05,14.4 22.1,24.69 33.15,41.15l66.31 -41.15zm-167.98 100.81c-48.63,-84.35 -161.35,-141.95 -265.23,-141.95 -55.26,0 -103.88,12.34 -150.29,37.03 -46.42,22.63 -79.57,55.55 -103.88,102.86 -24.31,45.26 -30.94,90.52 -22.1,137.84 6.63,47.32 28.73,88.46 68.52,127.56 28.73,26.74 59.68,49.37 95.04,67.89l41.99 22.63c55.26,30.86 110.51,57.6 165.77,88.46 55.26,30.86 110.51,63.78 163.56,106.98 50.84,43.21 99.46,98.75 123.77,166.64 24.31,65.83 24.31,137.84 13.26,201.62 -11.05,65.83 -39.78,129.61 -90.62,185.15 -46.42,53.49 -108.3,90.52 -181.24,113.15 -70.73,22.63 -145.87,24.69 -216.6,14.4 -70.73,-10.29 -137.03,-37.03 -196.71,-72.01 -55.26,-32.92 -108.3,-74.06 -154.71,-123.44l-59.68 47.32c50.83,55.55 108.3,100.81 172.4,139.9 68.52,41.14 143.66,67.89 225.44,82.29 86.2,14.4 172.4,8.23 254.17,-18.51 86.2,-26.75 159.14,-72.01 218.81,-135.78 59.68,-63.78 95.04,-141.96 106.09,-222.19 6.63,-34.98 11.05,-74.06 8.84,-113.15 -2.21,-41.14 -8.84,-82.29 -24.31,-123.44 -15.47,-39.09 -37.57,-76.12 -61.89,-111.1 -26.52,-32.91 -55.26,-59.66 -83.99,-84.35 -59.68,-49.38 -114.93,-84.35 -174.61,-117.27 -59.67,-32.92 -114.93,-59.66 -167.98,-90.52 -68.52,-39.09 -92.83,-49.37 -119.35,-76.12 -24.32,-26.74 -41.99,-55.55 -48.63,-88.46 -4.42,-32.92 0,-63.78 15.47,-92.58 15.47,-30.86 39.78,-53.49 72.94,-72.01 33.15,-18.51 70.73,-26.74 110.51,-26.74 77.36,0 152.5,43.2 198.92,106.98l66.31 -39.09zm652.01 1078.03c41.99,41.15 92.83,61.72 152.5,61.72 59.68,0 114.93,-22.63 152.5,-61.72 33.15,-34.97 55.26,-80.23 55.26,-127.55l0 -24.69 0 -407.35 0 -847.61 -75.15 0 0 847.61 0 407.35 0 22.63c-6.63,32.91 -11.05,59.66 -35.36,82.29 -24.32,26.75 -57.47,39.09 -97.25,39.09 -39.78,0 -72.94,-12.34 -97.25,-39.09 -22.1,-26.74 -33.15,-53.48 -33.15,-82.29l0 -22.63 0 -407.35 0 -847.61 -75.15 0 0 847.61 0 407.35 0 24.69c2.21,51.43 19.89,94.63 53.05,127.55zm472.98 -1407.2l0 847.61 0 407.35 0 26.74c-6.63,76.12 -33.15,141.96 -83.99,195.45 -59.68,63.78 -148.08,96.69 -236.49,96.69 -88.41,0 -176.82,-32.91 -236.49,-96.69 -50.84,-55.55 -81.78,-123.44 -81.78,-195.45l0 -26.74 0 -407.35 0 -847.61 -75.15 0 0 847.61 0 407.35 0 26.74c2.21,47.32 8.84,80.23 19.89,113.15 17.68,47.32 44.2,90.52 81.78,129.61 72.93,76.12 183.45,119.32 291.75,119.32 108.3,0 218.81,-43.2 291.75,-119.32 68.52,-67.89 103.88,-158.41 103.88,-242.77l0 -26.74 0 -407.35 0 -847.61 -75.15 0z"/>
    <g>
     <path class="fil2" d="M2168.9 2256.29c-5.46,0 -9.89,-1.77 -13.3,-5.32 -3.41,-3.55 -5.12,-7.91 -5.12,-13.09 0,-2.18 0.68,-4.91 2.05,-8.19l104.36 -246.36c2.18,-4.91 5.25,-8.93 9.2,-12.07 3.96,-3.14 8.8,-4.71 14.53,-4.71l4.09 0c5.73,0 10.57,1.57 14.53,4.71 3.95,3.14 7.02,7.16 9.2,12.07l104.36 246.36c1.36,3.28 2.05,6 2.05,8.19 0,5.18 -1.71,9.55 -5.12,13.09 -3.41,3.55 -7.84,5.32 -13.3,5.32 -3.82,0 -7.3,-1.02 -10.44,-3.07 -3.14,-2.05 -5.52,-4.84 -7.16,-8.39l-26.6 -63.84 -139.14 0 -26.6 63.84c-1.63,3.54 -4.02,6.34 -7.16,8.39 -3.14,2.05 -6.62,3.07 -10.44,3.07zm58.52 -109.26l110.49 0 -55.25 -133 -55.25 133zm256.18 109.26c-5.19,0 -9.55,-1.77 -13.09,-5.32 -3.55,-3.55 -5.32,-7.91 -5.32,-13.09l0 -175.56c0,-5.18 1.78,-9.62 5.32,-13.3 3.55,-3.68 7.91,-5.52 13.09,-5.52 5.18,0 9.62,1.84 13.3,5.52 3.68,3.68 5.52,8.12 5.52,13.3l0 17.6c19.1,-25.65 40.51,-38.47 64.25,-38.47l2.05 0c5.18,0 9.48,1.78 12.89,5.32 3.41,3.55 5.12,7.91 5.12,13.09 0,5.18 -1.78,9.41 -5.32,12.68 -3.54,3.28 -8.05,4.91 -13.5,4.91l-2.05 0c-13.09,0 -25.1,3.21 -36.01,9.62 -10.91,6.41 -20.05,15.21 -27.42,26.4l0 124.41c0,5.18 -1.84,9.55 -5.52,13.09 -3.68,3.55 -8.12,5.32 -13.3,5.32zm156.74 0c-5.19,0 -9.55,-1.77 -13.09,-5.32 -3.55,-3.55 -5.32,-7.91 -5.32,-13.09l0 -175.56c0,-5.18 1.78,-9.62 5.32,-13.3 3.55,-3.68 7.91,-5.52 13.09,-5.52 5.46,0 9.96,1.78 13.5,5.32 3.55,3.55 5.32,8.05 5.32,13.5l0 175.56c0,5.18 -1.84,9.55 -5.52,13.09 -3.68,3.55 -8.12,5.32 -13.3,5.32zm155.51 2.05c-39.83,0 -59.74,-18.01 -59.74,-54.02l0 -126.86 -29.06 0c-2.18,0 -4.03,-0.75 -5.52,-2.25 -1.5,-1.5 -2.25,-3.35 -2.25,-5.52 0,-2.73 1.23,-5.05 3.68,-6.96l55.66 -54.43c2.46,-2.45 4.77,-3.68 6.96,-3.68 2.18,0 4.02,0.82 5.52,2.45 1.5,1.64 2.25,3.55 2.25,5.73l0 32.74 46.24 0c4.64,0 8.46,1.5 11.46,4.5 3,3 4.5,6.82 4.5,11.46 0,4.37 -1.5,8.12 -4.5,11.25 -3,3.14 -6.82,4.71 -11.46,4.71l-46.24 0 0 123.59c0,10.64 2.52,17.39 7.57,20.26 5.05,2.86 11.39,4.29 19.03,4.29 5.46,0 10.92,-0.82 16.37,-2.45 1.09,-0.27 2.25,-0.54 3.48,-0.82 1.23,-0.27 2.8,-0.41 4.71,-0.41 3.82,0 7.23,1.43 10.23,4.29 3,2.87 4.5,6.34 4.5,10.44 0,6.28 -3.14,11.05 -9.41,14.33 -10.64,4.91 -21.96,7.36 -33.97,7.36zm102.72 -2.05c-5.19,0 -9.55,-1.77 -13.09,-5.32 -3.55,-3.55 -5.32,-7.91 -5.32,-13.09l0 -175.56c0,-5.18 1.78,-9.62 5.32,-13.3 3.55,-3.68 7.91,-5.52 13.09,-5.52 5.18,0 9.62,1.84 13.3,5.52 3.68,3.68 5.52,8.12 5.52,13.3l0 16.78c7.64,-10.91 16.84,-19.91 27.62,-27.01 10.77,-7.09 24.76,-10.64 41.94,-10.64 15.28,0 28.37,4.09 39.28,12.28 10.92,8.18 18.69,18.14 23.33,29.87 16.91,-28.1 42.01,-42.15 75.3,-42.15 15.28,0 28.03,3.82 38.26,11.46 10.23,7.64 17.8,17.46 22.71,29.46 4.91,12.01 7.36,24.56 7.36,37.65l0 117.86c0,5.18 -1.84,9.55 -5.52,13.09 -3.68,3.55 -8.12,5.32 -13.3,5.32 -5.18,0 -9.55,-1.77 -13.09,-5.32 -3.55,-3.55 -5.32,-7.91 -5.32,-13.09l0 -110.49c0,-17.73 -3.14,-30.76 -9.41,-39.08 -6.28,-8.32 -17.05,-12.48 -32.33,-12.48 -13.91,0 -25.44,3.61 -34.58,10.84 -9.14,7.23 -17.26,16.71 -24.35,28.44l0 122.77c0,5.18 -1.84,9.55 -5.52,13.09 -3.68,3.55 -8.12,5.32 -13.3,5.32 -5.19,0 -9.55,-1.77 -13.1,-5.32 -3.54,-3.55 -5.32,-7.91 -5.32,-13.09l0 -110.49c0,-17.73 -3.14,-30.76 -9.41,-39.08 -6.28,-8.32 -17.05,-12.48 -32.33,-12.48 -13.91,0 -25.44,3.61 -34.58,10.84 -9.14,7.23 -17.26,16.71 -24.35,28.44l0 122.77c0,5.18 -1.84,9.55 -5.52,13.09 -3.68,3.55 -8.12,5.32 -13.3,5.32zm410.45 2.05c-12,0 -23.12,-2.45 -33.35,-7.36 -10.23,-4.91 -18.35,-12.07 -24.35,-21.48 -6,-9.41 -9,-20.26 -9,-32.53 0,-20.19 7.98,-36.29 23.94,-48.29 15.96,-12 39.35,-18.01 70.18,-18.01l49.51 0 0 -3.27c0,-18.01 -4.43,-30.96 -13.3,-38.88 -8.87,-7.91 -22.72,-11.87 -41.54,-11.87 -10.37,0 -19.58,0.82 -27.63,2.46 -8.05,1.64 -16.98,4.09 -26.8,7.36 -2.18,0.55 -3.95,0.82 -5.32,0.82 -4.09,0 -7.64,-1.5 -10.64,-4.5 -3,-3 -4.5,-6.69 -4.5,-11.05 0,-7.37 3.55,-12.55 10.64,-15.55 23.19,-9.82 46.79,-14.73 70.8,-14.73 18.83,0 34.72,3.82 47.67,11.46 12.96,7.64 22.51,17.53 28.65,29.67 6.14,12.14 9.21,25.3 9.21,39.49l0 115.81c0,5.18 -1.84,9.55 -5.52,13.09 -3.68,3.55 -8.12,5.32 -13.3,5.32 -5.19,0 -9.55,-1.77 -13.09,-5.32 -3.55,-3.55 -5.32,-7.91 -5.32,-13.09l0 -10.64c-20.19,20.73 -45.83,31.1 -76.94,31.1zm13.91 -32.74c12.01,0 23.6,-2.93 34.79,-8.8 11.19,-5.86 20.6,-13.16 28.24,-21.89l0 -34.38 -44.6 0c-41.2,0 -61.79,10.78 -61.79,32.33 0,9.82 3.34,17.73 10.03,23.73 6.68,6 17.8,9 33.35,9zm343.34 30.69c-4.91,0 -9.41,-1.43 -13.5,-4.3 -4.09,-2.87 -7.09,-6.48 -9,-10.84l-71.21 -170.24c-1.36,-3.28 -2.05,-6.14 -2.05,-8.6 0,-5.18 1.77,-9.62 5.32,-13.3 3.55,-3.68 7.91,-5.52 13.09,-5.52 3.55,0 6.89,1.02 10.03,3.07 3.14,2.05 5.39,4.57 6.75,7.57l62.61 158.78 62.61 -158.78c1.36,-3 3.62,-5.52 6.75,-7.57 3.14,-2.05 6.48,-3.07 10.03,-3.07 5.18,0 9.55,1.84 13.09,5.52 3.55,3.68 5.32,8.12 5.32,13.3 0,2.46 -0.68,5.32 -2.05,8.6l-71.21 170.24c-1.91,4.37 -4.91,7.98 -9,10.84 -4.09,2.87 -8.6,4.3 -13.51,4.3l-4.09 0zm233.26 2.05c-33.28,0 -59.27,-9.48 -77.96,-28.44 -18.69,-18.96 -28.03,-45.63 -28.03,-80 0,-19.37 3.55,-37.24 10.64,-53.61 7.09,-16.37 18.01,-29.6 32.74,-39.7 14.73,-10.09 32.88,-15.14 54.43,-15.14 20.19,0 37.65,4.71 52.38,14.12 14.73,9.41 25.92,21.96 33.55,37.65 7.64,15.69 11.46,32.8 11.46,51.36 0,5.19 -1.71,9.55 -5.12,13.09 -3.41,3.55 -7.98,5.32 -13.71,5.32l-138.73 0c2.18,19.1 9.28,33.97 21.28,44.6 12,10.64 28.78,15.96 50.33,15.96 11.46,0 21.48,-1.09 30.08,-3.27 8.6,-2.18 16.99,-5.32 25.17,-9.41 2.18,-1.09 4.64,-1.64 7.36,-1.64 4.37,0 8.19,1.5 11.46,4.5 3.27,3 4.91,6.82 4.91,11.46 0,6 -3.55,11.05 -10.64,15.14 -10.64,6 -21.14,10.5 -31.51,13.51 -10.37,3 -23.74,4.5 -40.1,4.5zm52.38 -125.63c-0.82,-13.37 -4.3,-24.56 -10.44,-33.56 -6.14,-9 -13.71,-15.62 -22.71,-19.85 -9,-4.23 -18.14,-6.34 -27.42,-6.34 -9.27,0 -18.41,2.11 -27.42,6.34 -9,4.23 -16.5,10.84 -22.51,19.85 -6,9 -9.41,20.19 -10.23,33.56l120.72 0zm411.68 69.16c4.91,0 8.87,1.5 11.86,4.5 3,3 4.5,6.68 4.5,11.05 0,7.09 -3,12.28 -9,15.55 -13.91,7.91 -27.97,14.05 -42.15,18.41 -14.19,4.37 -30.15,6.68 -47.88,6.96l-12.69 21.69c4.37,-1.09 9,-1.64 13.91,-1.64 9.28,0 16.85,2.66 22.71,7.98 5.87,5.32 8.8,12.21 8.8,20.67 0,12.55 -3.89,21.96 -11.67,28.24 -7.77,6.28 -19.03,9.41 -33.76,9.41 -13.09,0 -25.37,-3.54 -36.83,-10.64 -1.09,-0.82 -2.11,-1.84 -3.07,-3.07 -0.96,-1.23 -1.43,-2.52 -1.43,-3.89 0,-2.18 0.68,-4.09 2.05,-5.73 1.36,-1.64 3.27,-2.45 5.73,-2.45 1.09,0 2.45,0.41 4.09,1.23 8.46,4.64 16.5,6.96 24.14,6.96 15.55,0 23.32,-6.28 23.32,-18.83 0,-4.09 -1.36,-7.23 -4.09,-9.41 -2.73,-2.18 -6.28,-3.28 -10.64,-3.28 -6,0 -12.01,1.5 -18.01,4.5 -1.64,0.82 -3,1.23 -4.1,1.23 -1.91,0 -3.61,-0.61 -5.11,-1.84 -1.5,-1.23 -2.25,-2.8 -2.25,-4.71 0,-2.18 0.54,-4.09 1.64,-5.73l19.64 -31.1c-24.83,-2.18 -46.99,-9.48 -66.5,-21.9 -19.5,-12.41 -34.78,-29.26 -45.83,-50.54 -11.05,-21.28 -16.58,-45.97 -16.58,-74.07 0,-29.74 6.21,-55.72 18.62,-77.96 12.41,-22.24 29.46,-39.28 51.15,-51.15 21.69,-11.87 46.17,-17.8 73.46,-17.8 18.55,0 35.12,2.18 49.72,6.55 14.6,4.37 29.12,10.64 43.58,18.83 6,3.27 9,8.46 9,15.55 0,4.09 -1.5,7.71 -4.5,10.85 -3,3.14 -6.96,4.71 -11.86,4.71 -2.73,0 -5.19,-0.54 -7.37,-1.64 -12,-6.28 -23.74,-11.05 -35.19,-14.32 -11.46,-3.27 -24.69,-4.91 -39.7,-4.91 -23.46,0 -43.45,4.84 -59.95,14.53 -16.5,9.69 -28.92,22.92 -37.24,39.7 -8.32,16.78 -12.48,35.81 -12.48,57.09 0,21.28 4.16,40.31 12.48,57.09 8.32,16.78 20.73,30.01 37.24,39.69 16.5,9.69 36.49,14.53 59.95,14.53 15.01,0 28.24,-1.64 39.7,-4.91 11.46,-3.28 23.19,-8.05 35.19,-14.33 2.18,-1.09 4.64,-1.63 7.37,-1.63zm151.82 56.47c-33.28,0 -59.27,-9.48 -77.96,-28.44 -18.69,-18.96 -28.03,-45.63 -28.03,-80 0,-19.37 3.55,-37.24 10.64,-53.61 7.09,-16.37 18.01,-29.6 32.74,-39.7 14.73,-10.09 32.88,-15.14 54.43,-15.14 20.19,0 37.65,4.71 52.38,14.12 14.73,9.41 25.92,21.96 33.55,37.65 7.64,15.69 11.46,32.8 11.46,51.36 0,5.19 -1.71,9.55 -5.12,13.09 -3.41,3.55 -7.98,5.32 -13.71,5.32l-138.73 0c2.18,19.1 9.28,33.97 21.28,44.6 12,10.64 28.78,15.96 50.33,15.96 11.46,0 21.48,-1.09 30.08,-3.27 8.6,-2.18 16.99,-5.32 25.17,-9.41 2.18,-1.09 4.64,-1.64 7.36,-1.64 4.37,0 8.19,1.5 11.46,4.5 3.27,3 4.91,6.82 4.91,11.46 0,6 -3.55,11.05 -10.64,15.14 -10.64,6 -21.14,10.5 -31.51,13.51 -10.37,3 -23.74,4.5 -40.1,4.5zm52.38 -125.63c-0.82,-13.37 -4.3,-24.56 -10.44,-33.56 -6.14,-9 -13.71,-15.62 -22.71,-19.85 -9,-4.23 -18.14,-6.34 -27.42,-6.34 -9.27,0 -18.41,2.11 -27.42,6.34 -9,4.23 -16.5,10.84 -22.51,19.85 -6,9 -9.41,20.19 -10.23,33.56l120.72 0zm157.96 123.59c-4.91,0 -9.41,-1.43 -13.5,-4.3 -4.09,-2.87 -7.09,-6.48 -9,-10.84l-71.21 -170.24c-1.36,-3.28 -2.05,-6.14 -2.05,-8.6 0,-5.18 1.77,-9.62 5.32,-13.3 3.55,-3.68 7.91,-5.52 13.09,-5.52 3.55,0 6.89,1.02 10.03,3.07 3.14,2.05 5.39,4.57 6.75,7.57l62.61 158.78 62.61 -158.78c1.36,-3 3.62,-5.52 6.75,-7.57 3.14,-2.05 6.48,-3.07 10.03,-3.07 5.18,0 9.55,1.84 13.09,5.52 3.55,3.68 5.32,8.12 5.32,13.3 0,2.46 -0.68,5.32 -2.05,8.6l-71.21 170.24c-1.91,4.37 -4.91,7.98 -9,10.84 -4.09,2.87 -8.6,4.3 -13.51,4.3l-4.09 0zm161.24 0c-5.19,0 -9.55,-1.77 -13.09,-5.32 -3.55,-3.55 -5.32,-7.91 -5.32,-13.09l0 -175.56c0,-5.18 1.78,-9.62 5.32,-13.3 3.55,-3.68 7.91,-5.52 13.09,-5.52 5.18,0 9.62,1.84 13.3,5.52 3.68,3.68 5.52,8.12 5.52,13.3l0 17.6c19.1,-25.65 40.51,-38.47 64.25,-38.47l2.05 0c5.18,0 9.48,1.78 12.89,5.32 3.41,3.55 5.12,7.91 5.12,13.09 0,5.18 -1.78,9.41 -5.32,12.68 -3.54,3.28 -8.05,4.91 -13.5,4.91l-2.05 0c-13.09,0 -25.1,3.21 -36.01,9.62 -10.91,6.41 -20.05,15.21 -27.42,26.4l0 124.41c0,5.18 -1.84,9.55 -5.52,13.09 -3.68,3.55 -8.12,5.32 -13.3,5.32zm225.49 2.05c-33.28,0 -59.27,-9.48 -77.96,-28.44 -18.69,-18.96 -28.03,-45.63 -28.03,-80 0,-19.37 3.55,-37.24 10.64,-53.61 7.09,-16.37 18.01,-29.6 32.74,-39.7 14.73,-10.09 32.88,-15.14 54.43,-15.14 20.19,0 37.65,4.71 52.38,14.12 14.73,9.41 25.92,21.96 33.55,37.65 7.64,15.69 11.46,32.8 11.46,51.36 0,5.19 -1.71,9.55 -5.12,13.09 -3.41,3.55 -7.98,5.32 -13.71,5.32l-138.73 0c2.18,19.1 9.28,33.97 21.28,44.6 12,10.64 28.78,15.96 50.33,15.96 11.46,0 21.48,-1.09 30.08,-3.27 8.6,-2.18 16.99,-5.32 25.17,-9.41 2.18,-1.09 4.64,-1.64 7.36,-1.64 4.37,0 8.19,1.5 11.46,4.5 3.27,3 4.91,6.82 4.91,11.46 0,6 -3.55,11.05 -10.64,15.14 -10.64,6 -21.14,10.5 -31.51,13.51 -10.37,3 -23.74,4.5 -40.1,4.5zm52.38 -125.63c-0.82,-13.37 -4.3,-24.56 -10.44,-33.56 -6.14,-9 -13.71,-15.62 -22.71,-19.85 -9,-4.23 -18.14,-6.34 -27.42,-6.34 -9.27,0 -18.41,2.11 -27.42,6.34 -9,4.23 -16.5,10.84 -22.51,19.85 -6,9 -9.41,20.19 -10.23,33.56l120.72 0zm284.41 123.59c-5.18,0 -9.55,-1.77 -13.09,-5.32 -3.55,-3.55 -5.32,-7.91 -5.32,-13.09l0 -234.49 -83.48 0c-4.91,0 -9,-1.63 -12.28,-4.91 -3.27,-3.27 -4.91,-7.36 -4.91,-12.28 0,-4.91 1.64,-9.07 4.91,-12.48 3.27,-3.41 7.37,-5.11 12.28,-5.11l203.8 0c4.91,0 9.07,1.7 12.48,5.11 3.41,3.41 5.12,7.57 5.12,12.48 0,4.91 -1.71,9 -5.12,12.28 -3.41,3.28 -7.57,4.91 -12.48,4.91l-83.07 0 0 234.49c0,5.18 -1.84,9.55 -5.52,13.09 -3.68,3.55 -8.12,5.32 -13.3,5.32zm224.26 2.05c-33.28,0 -59.27,-9.48 -77.96,-28.44 -18.69,-18.96 -28.03,-45.63 -28.03,-80 0,-19.37 3.55,-37.24 10.64,-53.61 7.09,-16.37 18.01,-29.6 32.74,-39.7 14.73,-10.09 32.88,-15.14 54.43,-15.14 20.19,0 37.65,4.71 52.38,14.12 14.73,9.41 25.92,21.96 33.55,37.65 7.64,15.69 11.46,32.8 11.46,51.36 0,5.19 -1.71,9.55 -5.12,13.09 -3.41,3.55 -7.98,5.32 -13.71,5.32l-138.73 0c2.18,19.1 9.28,33.97 21.28,44.6 12,10.64 28.78,15.96 50.33,15.96 11.46,0 21.48,-1.09 30.08,-3.27 8.6,-2.18 16.99,-5.32 25.17,-9.41 2.18,-1.09 4.64,-1.64 7.36,-1.64 4.37,0 8.19,1.5 11.46,4.5 3.27,3 4.91,6.82 4.91,11.46 0,6 -3.55,11.05 -10.64,15.14 -10.64,6 -21.14,10.5 -31.51,13.51 -10.37,3 -23.74,4.5 -40.1,4.5zm52.38 -125.63c-0.82,-13.37 -4.3,-24.56 -10.44,-33.56 -6.14,-9 -13.71,-15.62 -22.71,-19.85 -9,-4.23 -18.14,-6.34 -27.42,-6.34 -9.27,0 -18.41,2.11 -27.42,6.34 -9,4.23 -16.5,10.84 -22.51,19.85 -6,9 -9.41,20.19 -10.23,33.56l120.72 0zm104.35 123.59c-5.19,0 -9.55,-1.77 -13.09,-5.32 -3.55,-3.55 -5.32,-7.91 -5.32,-13.09l0 -265.59c0,-5.18 1.78,-9.62 5.32,-13.3 3.55,-3.68 7.91,-5.52 13.09,-5.52 5.18,0 9.62,1.84 13.3,5.52 3.68,3.68 5.52,8.12 5.52,13.3l0 167.37 97.4 -90.03c4.09,-3.55 8.18,-5.32 12.28,-5.32 6.28,0 10.84,1.78 13.71,5.32 2.87,3.54 4.3,7.77 4.3,12.68 0,4.64 -2.32,9.28 -6.96,13.91l-58.93 52.79 74.07 98.21c2.73,3.55 4.09,7.23 4.09,11.05 0,5.46 -1.77,9.82 -5.32,13.09 -3.55,3.27 -8.05,4.91 -13.5,4.91 -2.73,0 -5.46,-0.68 -8.19,-2.05 -2.73,-1.36 -5.04,-3.27 -6.96,-5.73l-70.39 -95.76 -35.6 32.33 0 52.79c0,5.18 -1.84,9.55 -5.52,13.09 -3.68,3.55 -8.12,5.32 -13.3,5.32zm223.03 0c-5.19,0 -9.55,-1.77 -13.09,-5.32 -3.55,-3.55 -5.32,-7.91 -5.32,-13.09l0 -175.56c0,-5.18 1.78,-9.62 5.32,-13.3 3.55,-3.68 7.91,-5.52 13.09,-5.52 5.18,0 9.62,1.84 13.3,5.52 3.68,3.68 5.52,8.12 5.52,13.3l0 16.78c10.37,-11.46 21.55,-20.6 33.55,-27.42 12.01,-6.82 26.19,-10.23 42.56,-10.23 15,0 28.03,3.55 39.08,10.64 11.05,7.09 19.51,16.78 25.37,29.06 5.86,12.28 8.8,25.78 8.8,40.51l0 116.22c0,5.18 -1.84,9.55 -5.52,13.09 -3.68,3.55 -8.12,5.32 -13.3,5.32 -5.19,0 -9.55,-1.77 -13.09,-5.32 -3.55,-3.55 -5.32,-7.91 -5.32,-13.09l0 -112.13c0,-33.28 -15.01,-49.93 -45.02,-49.93 -13.64,0 -25.85,3.55 -36.63,10.64 -10.77,7.09 -20.94,16.64 -30.48,28.65l0 122.77c0,5.18 -1.84,9.55 -5.52,13.09 -3.68,3.55 -8.12,5.32 -13.3,5.32zm322.88 2.05c-21,0 -39.42,-4.5 -55.25,-13.5 -15.82,-9 -28.03,-21.76 -36.63,-38.26 -8.6,-16.5 -12.89,-35.4 -12.89,-56.68 0,-21.28 4.29,-40.17 12.89,-56.68 8.6,-16.51 20.8,-29.26 36.63,-38.26 15.82,-9 34.24,-13.51 55.25,-13.51 20.73,0 39.01,4.5 54.84,13.51 15.82,9 28.1,21.76 36.83,38.26 8.73,16.5 13.09,35.39 13.09,56.68 0,21.28 -4.37,40.17 -13.09,56.68 -8.73,16.5 -21.01,29.26 -36.83,38.26 -15.82,9 -34.1,13.5 -54.84,13.5zm0 -33.97c11.19,0 21.9,-2.59 32.13,-7.78 10.23,-5.18 18.69,-13.37 25.37,-24.55 6.69,-11.19 10.03,-25.37 10.03,-42.56 0,-16.91 -3.34,-30.96 -10.03,-42.15 -6.68,-11.19 -15.14,-19.3 -25.37,-24.35 -10.23,-5.04 -20.94,-7.57 -32.13,-7.57 -11.46,0 -22.3,2.53 -32.53,7.57 -10.23,5.05 -18.62,13.16 -25.17,24.35 -6.55,11.19 -9.82,25.24 -9.82,42.15 0,17.19 3.27,31.38 9.82,42.56 6.55,11.19 14.94,19.37 25.17,24.55 10.23,5.19 21.08,7.78 32.53,7.78zm175.15 31.92c-5.19,0 -9.55,-1.77 -13.09,-5.32 -3.55,-3.55 -5.32,-7.91 -5.32,-13.09l0 -265.59c0,-5.18 1.78,-9.62 5.32,-13.3 3.55,-3.68 7.91,-5.52 13.09,-5.52 5.46,0 9.96,1.78 13.5,5.32 3.55,3.55 5.32,8.05 5.32,13.5l0 265.59c0,5.18 -1.84,9.55 -5.52,13.09 -3.68,3.55 -8.12,5.32 -13.3,5.32zm175.56 2.05c-21,0 -39.42,-4.5 -55.25,-13.5 -15.82,-9 -28.03,-21.76 -36.63,-38.26 -8.6,-16.5 -12.89,-35.4 -12.89,-56.68 0,-21.28 4.29,-40.17 12.89,-56.68 8.6,-16.51 20.8,-29.26 36.63,-38.26 15.82,-9 34.24,-13.51 55.25,-13.51 20.73,0 39.01,4.5 54.84,13.51 15.82,9 28.1,21.76 36.83,38.26 8.73,16.5 13.09,35.39 13.09,56.68 0,21.28 -4.37,40.17 -13.09,56.68 -8.73,16.5 -21.01,29.26 -36.83,38.26 -15.82,9 -34.1,13.5 -54.84,13.5zm0 -33.97c11.19,0 21.9,-2.59 32.13,-7.78 10.23,-5.18 18.69,-13.37 25.37,-24.55 6.69,-11.19 10.03,-25.37 10.03,-42.56 0,-16.91 -3.34,-30.96 -10.03,-42.15 -6.68,-11.19 -15.14,-19.3 -25.37,-24.35 -10.23,-5.04 -20.94,-7.57 -32.13,-7.57 -11.46,0 -22.3,2.53 -32.53,7.57 -10.23,5.05 -18.62,13.16 -25.17,24.35 -6.55,11.19 -9.82,25.24 -9.82,42.15 0,17.19 3.27,31.38 9.82,42.56 6.55,11.19 14.94,19.37 25.17,24.55 10.23,5.19 21.08,7.78 32.53,7.78zm176.38 -221.39c-5.73,0 -10.64,-2.05 -14.73,-6.14 -4.09,-4.09 -6.14,-9 -6.14,-14.73l0 -1.64c0,-5.73 2.05,-10.64 6.14,-14.73 4.09,-4.09 9,-6.14 14.73,-6.14l2.45 0c5.73,0 10.64,2.05 14.73,6.14 4.09,4.09 6.14,9 6.14,14.73l0 1.64c0,5.73 -2.05,10.64 -6.14,14.73 -4.09,4.09 -9,6.14 -14.73,6.14l-2.45 0zm-33.97 349.48c-9.82,0 -18.41,-1.23 -25.78,-3.68 -3.27,-1.09 -5.86,-2.93 -7.78,-5.52 -1.91,-2.59 -2.86,-5.66 -2.86,-9.2 0,-4.09 1.5,-7.71 4.5,-10.85 3,-3.14 6.68,-4.71 11.05,-4.71 1.64,0 3.68,0.21 6.14,0.61 2.46,0.41 4.5,0.61 6.14,0.61 8.46,0 14.73,-1.5 18.83,-4.5 4.09,-3 6.14,-9.55 6.14,-19.64l0 -232.85c0,-5.19 1.78,-9.62 5.32,-13.3 3.55,-3.68 7.91,-5.52 13.09,-5.52 5.46,0 9.96,1.77 13.5,5.32 3.55,3.55 5.32,8.05 5.32,13.51l0 233.67c0,16.92 -4.3,30.49 -12.89,40.72 -8.59,10.23 -22.17,15.35 -40.72,15.35zm135.86 -349.48c-5.73,0 -10.64,-2.05 -14.73,-6.14 -4.09,-4.09 -6.14,-9 -6.14,-14.73l0 -1.64c0,-5.73 2.05,-10.64 6.14,-14.73 4.09,-4.09 9,-6.14 14.73,-6.14l2.45 0c5.73,0 10.64,2.05 14.73,6.14 4.09,4.09 6.14,9 6.14,14.73l0 1.64c0,5.73 -2.05,10.64 -6.14,14.73 -4.09,4.09 -9,6.14 -14.73,6.14l-2.45 0zm0.82 253.31c-5.19,0 -9.55,-1.77 -13.09,-5.32 -3.55,-3.55 -5.32,-7.91 -5.32,-13.09l0 -175.56c0,-5.18 1.78,-9.62 5.32,-13.3 3.55,-3.68 7.91,-5.52 13.09,-5.52 5.46,0 9.96,1.78 13.5,5.32 3.55,3.55 5.32,8.05 5.32,13.5l0 175.56c0,5.18 -1.84,9.55 -5.52,13.09 -3.68,3.55 -8.12,5.32 -13.3,5.32zm101.9 0c-5.19,0 -9.55,-1.77 -13.09,-5.32 -3.55,-3.55 -5.32,-7.91 -5.32,-13.09l0 -265.59c0,-5.18 1.78,-9.62 5.32,-13.3 3.55,-3.68 7.91,-5.52 13.09,-5.52 5.46,0 9.96,1.78 13.5,5.32 3.55,3.55 5.32,8.05 5.32,13.5l0 265.59c0,5.18 -1.84,9.55 -5.52,13.09 -3.68,3.55 -8.12,5.32 -13.3,5.32zm176.79 2.05c-33.28,0 -59.27,-9.48 -77.96,-28.44 -18.69,-18.96 -28.03,-45.63 -28.03,-80 0,-19.37 3.55,-37.24 10.64,-53.61 7.09,-16.37 18.01,-29.6 32.74,-39.7 14.73,-10.09 32.88,-15.14 54.43,-15.14 20.19,0 37.65,4.71 52.38,14.12 14.73,9.41 25.92,21.96 33.55,37.65 7.64,15.69 11.46,32.8 11.46,51.36 0,5.19 -1.71,9.55 -5.12,13.09 -3.41,3.55 -7.98,5.32 -13.71,5.32l-138.73 0c2.18,19.1 9.28,33.97 21.28,44.6 12,10.64 28.78,15.96 50.33,15.96 11.46,0 21.48,-1.09 30.08,-3.27 8.6,-2.18 16.99,-5.32 25.17,-9.41 2.18,-1.09 4.64,-1.64 7.36,-1.64 4.37,0 8.19,1.5 11.46,4.5 3.27,3 4.91,6.82 4.91,11.46 0,6 -3.55,11.05 -10.64,15.14 -10.64,6 -21.14,10.5 -31.51,13.51 -10.37,3 -23.74,4.5 -40.1,4.5zm52.38 -125.63c-0.82,-13.37 -4.3,-24.56 -10.44,-33.56 -6.14,-9 -13.71,-15.62 -22.71,-19.85 -9,-4.23 -18.14,-6.34 -27.42,-6.34 -9.27,0 -18.41,2.11 -27.42,6.34 -9,4.23 -16.5,10.84 -22.51,19.85 -6,9 -9.41,20.19 -10.23,33.56l120.72 0z"/>
     <path class="fil2" d="M7441.4 2256.29c-5.19,0 -9.55,-1.77 -13.09,-5.32 -3.55,-3.55 -5.32,-7.91 -5.32,-13.09l0 -175.56c0,-5.18 1.78,-9.62 5.32,-13.3 3.55,-3.68 7.91,-5.52 13.09,-5.52 5.18,0 9.62,1.84 13.3,5.52 3.68,3.68 5.52,8.12 5.52,13.3l0 17.6c19.1,-25.65 40.51,-38.47 64.25,-38.47l2.05 0c5.18,0 9.48,1.78 12.89,5.32 3.41,3.55 5.12,7.91 5.12,13.09 0,5.18 -1.78,9.41 -5.32,12.68 -3.54,3.28 -8.05,4.91 -13.5,4.91l-2.05 0c-13.09,0 -25.1,3.21 -36.01,9.62 -10.91,6.41 -20.05,15.21 -27.42,26.4l0 124.41c0,5.18 -1.84,9.55 -5.52,13.09 -3.68,3.55 -8.12,5.32 -13.3,5.32zm155.92 -253.31c-5.73,0 -10.64,-2.05 -14.73,-6.14 -4.09,-4.09 -6.14,-9 -6.14,-14.73l0 -1.64c0,-5.73 2.05,-10.64 6.14,-14.73 4.09,-4.09 9,-6.14 14.73,-6.14l2.45 0c5.73,0 10.64,2.05 14.73,6.14 4.09,4.09 6.14,9 6.14,14.73l0 1.64c0,5.73 -2.05,10.64 -6.14,14.73 -4.09,4.09 -9,6.14 -14.73,6.14l-2.45 0zm0.82 253.31c-5.19,0 -9.55,-1.77 -13.09,-5.32 -3.55,-3.55 -5.32,-7.91 -5.32,-13.09l0 -175.56c0,-5.18 1.78,-9.62 5.32,-13.3 3.55,-3.68 7.91,-5.52 13.09,-5.52 5.46,0 9.96,1.78 13.5,5.32 3.55,3.55 5.32,8.05 5.32,13.5l0 175.56c0,5.18 -1.84,9.55 -5.52,13.09 -3.68,3.55 -8.12,5.32 -13.3,5.32z"/>
    </g>
   </g>
  </g>
 </g>
</svg>
